<svg version="1.1" id="Logo" height="70px" xmlns="http://www.w3.org/2000/svg" xmlns:xlink="http://www.w3.org/1999/xlink" x="0px" y="0px" style="enable-background:new 0 0 3546.6 999.7;" xml:space="preserve" viewBox="0 0 3546.6 999.7"><style type="text/css">.logost0{fill:#25a4e4;}.logost1{fill:#fff;}</style><path id="D_1_" class="logost0" d="M977.7,509.4c0,180.3-146.7,327-327,327H411.1c-10,12-25.1,19.6-42,19.6c-30.3,0-54.8-24.5-54.8-54.8s24.5-54.8,54.8-54.8c16.6,0,31.4,7.4,41.5,19h240.1c141.3,0,256.2-114.9,256.2-256.2c0-30.3-5.2-59.7-15.4-87.6c-22.9-6.6-39.7-27.6-39.7-52.6c0-30.3,24.5-54.8,54.8-54.8s54.8,24.5,54.8,54.8c0,8.3-1.9,16.2-5.2,23.3C970.4,429.7,977.7,468.8,977.7,509.4 M90.2,759.5V253.2h560.4c26.8,0,53,4.1,78.2,12.2c7,22.1,27.7,38.2,52.2,38.2c30.3,0,54.8-24.5,54.8-54.8S811.3,194,781,194c-8.9,0-17.2,2.1-24.7,5.9c-33.9-11.6-69.4-17.5-105.7-17.5H54.8c-19.6,0-35.4,15.9-35.4,35.4v541.8C7.5,769.6,0,784.5,0,801.3c0,30.3,24.5,54.8,54.8,54.8s54.8-24.5,54.8-54.8C109.6,784.5,102,769.6,90.2,759.5"></path><path id="D" class="logost1" d="M1074.7,753.9c1.6,5.2,2.5,10.7,2.5,16.4c0,30.3-24.5,54.8-54.8,54.8s-54.8-24.5-54.8-54.8c0-27.6,20.5-50.5,47.1-54.2c35.5-62.4,54.2-132.7,54.2-205.3c0-50.4-8.8-99.6-26.3-146.2c-16.9-45.2-41.4-86.9-72.8-123.7c-6.8-8-15.2-16.3-24-25.1c-0.1-0.1-0.1-0.1-0.2-0.2C867.5,136.1,763.2,92.5,652,92.5H248.1c-10,10.5-24.1,17.1-39.7,17.1c-30.3,0-54.8-24.5-54.8-54.8S178.1,0,208.4,0C226.1,0,242,8.5,252,21.6h400c65.8,0,129.5,12.9,189.3,38.5c58,24.7,110.1,60.2,154.6,105.5c9.4,9.4,19,19,27.7,29.1c36.8,43.2,65.5,92,85.3,145c20.4,54.6,30.8,112.1,30.8,171C1139.7,596.8,1117.3,680.1,1074.7,753.9 M896.8,835.8c-27,0-49.4,19.5-53.9,45.1c-59.2,30.6-125.1,46.6-192.3,46.6h-0.1l-406.8,1.2V410.9c11.8-10,19.3-25,19.3-41.8c0-30.3-24.5-54.8-54.8-54.8s-54.8,24.5-54.8,54.8c0,16.7,7.5,31.7,19.3,41.8v553.4c0,9.4,3.7,18.4,10.4,25.1c6.6,6.6,15.6,10.3,25,10.3h0.1l442.2-1.3c79.7,0,157.9-19.4,227.9-56.2c5.7,2,11.8,3.1,18.2,3.1c30.3,0,54.8-24.5,54.8-54.8C951.6,860.3,927.1,835.8,896.8,835.8"></path><g id="Text"><path id="Dementia" class="logost0" d="M1398.9,200.2h143.7c107.8,0,185.3,64.7,185.3,170.9c0,106.3-77.5,171.4-184.8,171.4h-144.2V200.2z M1542.7,465.6c60.1,0,95-43.6,95-94.4c0-52.9-31.8-93.9-94.4-93.9h-56v188.4h55.4V465.6z M1873.2,288.5c73.4,0,126.8,53.9,126.8,138.1v16.9h-176.6c4.6,23.1,26.2,44.1,63.1,44.1c22.1,0,46.7-8.7,60.6-21l33.4,49.3c-24.6,22.1-65.7,32.9-103.7,32.9c-76.5,0-135.5-49.8-135.5-130.4C1741.3,346.5,1795.7,288.5,1873.2,288.5z M1822.4,392.2h102.1c-2.1-17.5-14.9-42.6-51.3-42.6C1838.8,349.6,1825.5,374.2,1822.4,392.2z M2339.3,391.7c0-19-9.2-33.4-32.9-33.4c-21.6,0-37,13.9-44.7,24.1v160.2h-79V391.7c0-19-8.7-33.4-32.9-33.4c-21,0-35.9,13.9-44.1,24.1v160.2h-79v-248h79v30.3c10.8-14.4,42.6-36.4,81.6-36.4c35.4,0,60.1,14.9,70.3,44.1c14.4-21.6,46.7-44.1,85.7-44.1c45.7,0,74.4,23.6,74.4,74.4v179.7h-78.5L2339.3,391.7L2339.3,391.7z M2579,288.5c73.4,0,126.8,53.9,126.8,138.1v16.9h-176.6c4.6,23.1,26.2,44.1,63.1,44.1c22.1,0,46.7-8.7,60.6-21l33.4,49.3c-24.6,22.1-65.7,32.9-103.7,32.9c-76.5,0-135.5-49.8-135.5-130.4C2447.1,346.5,2501.5,288.5,2579,288.5z M2528.2,392.2h102.1c-2.1-17.5-14.9-42.6-51.3-42.6C2544.6,349.6,2531.3,374.2,2528.2,392.2z M2900.3,399.4c0-30.3-15.9-41.1-40.6-41.1c-23.6,0-39,12.8-48.3,24.1v160.2h-79v-248h79v30.3c14.9-17.5,44.1-36.4,85.7-36.4c56.5,0,82.1,32.9,82.1,78.5v175.6h-79V399.4H2900.3z M3041,475.8V363.4h-41.1v-68.8h41.1v-67.8h78.5v67.8h50.3v68.8h-50.3v90.3c0,14.4,8.2,25.2,22.1,25.2c8.7,0,17.5-3.1,20-6.2l15.4,59.5c-9.8,9.2-29.3,16.4-58.5,16.4C3068.2,548.7,3041,523.6,3041,475.8z M3191.4,226.9c0-25.2,20-45.2,45.2-45.2s45.2,20,45.2,45.2s-20,45.7-45.2,45.7S3191.4,252,3191.4,226.9z M3197,294.6h79v247.9h-79V294.6z M3467.5,517.9c-15.4,18.5-45.2,30.8-77,30.8c-38,0-85.2-25.7-85.2-81.6c0-60.1,47.2-78,85.2-78c32.9,0,62.1,10.3,77,28.7v-31.3c0-21.6-18.5-35.9-50.3-35.9c-24.6,0-50.3,9.2-70.3,26.2l-28.2-49.8c31.8-27.2,74.4-38.5,112.4-38.5c59.5,0,115.5,22.1,115.5,99.1v155h-79L3467.5,517.9L3467.5,517.9z M3467.5,456.8c-8.2-11.3-26.7-17.5-44.1-17.5c-21,0-39.5,9.2-39.5,28.7s18.5,28.7,39.5,28.7c17.5,0,35.9-6.2,44.1-18V456.8z"></path><path id="Dictionary" class="logost1" d="M1398.9,631.3h65.4c57.2,0,95.1,39,95.1,91.8c0,53.1-37.9,91.6-95.1,91.6h-65.4V631.3z M1464.4,790.5c42.3,0,66.8-30.2,66.8-67.4c0-37.7-23.6-67.6-66.8-67.6h-37.9v135H1464.4z M1606.5,631.3h27.5v183.4h-27.5V631.3z M1681,723.1c0-56.4,41.8-94.9,95.1-94.9c34.9,0,57.5,17.3,71.8,38.8l-23.4,12.4c-9.6-15.4-27.8-26.7-48.4-26.7c-38.2,0-66.8,29.1-66.8,70.4c0,41,28.6,70.4,66.8,70.4c20.6,0,38.8-11.3,48.4-26.7l23.4,12.4c-14.6,21.4-36.8,38.8-71.8,38.8C1722.8,818,1681,779.5,1681,723.1z M1934,655.5h-56.9v-24.2h141.1v24.2h-56.6v159.2H1934V655.5z M2060.5,631.3h27.5v183.4h-27.5V631.3z M2227.1,628.3c54.7,0,92.4,40.4,92.4,94.9c0,54.4-37.7,94.9-92.4,94.9s-92.4-40.4-92.4-94.9C2134.7,668.7,2172.4,628.3,2227.1,628.3z M2227.1,652.7c-39.3,0-64.1,30-64.1,70.4c0,40.1,24.7,70.4,64.1,70.4c38.8,0,64.1-30.2,64.1-70.4C2291.2,682.7,2265.9,652.7,2227.1,652.7z M2394,676.1v138.6h-27.5V631.3h28.3l99.8,135.3V631.3h27.5v183.4h-26.7L2394,676.1z M2691.5,776.7h-87.7l-14.8,37.9h-31.3l72.9-183.4h34.4l72.9,183.4h-31.3L2691.5,776.7z M2611.8,752.3h71.8l-36-92.9L2611.8,752.3z M2835.3,744h-34.4v70.7h-27.5V631.3h77.3c34.9,0,58.8,22.5,58.8,56.4c0,33-22.3,50.6-45.6,53.6l47,73.4H2879L2835.3,744z M2847.1,655.5h-46.2v64.3h46.2c19.8,0,34.1-12.9,34.1-32.2S2866.9,655.5,2847.1,655.5z M3005,738l-71.8-106.7h31.6l53.9,81.9l53.3-81.9h31.9L3032.5,738v76.7H3005V738z"></path></g></svg>