<svg xmlns="http://www.w3.org/2000/svg" data-name="Layer 1" xmlns:xlink="http://www.w3.org/1999/xlink" preserveAspectRatio="xMidYMid meet" x="0" y="0" viewBox="29.16 56.06 608.96 424.36">    <path d="M790.98251,682.84065H220.29076a19.1356,19.1356,0,0,1-19.1356-19.1356v0q310.31347-36.06437,608.963,0v0A19.1356,19.1356,0,0,1,790.98251,682.84065Z" transform="translate(-172 -202.42116)" fill="#2f2e41"></path>    <path d="M810.11811,664.83065,201.15516,663.705l70.57668-118.7534.33768-.56282v-261.719a24.18764,24.18764,0,0,1,24.18966-24.18966h415.378a24.18764,24.18764,0,0,1,24.18966,24.18966v263.52Z" transform="translate(-172 -202.42116)" fill="#3f3d56"></path>    <path d="M295.70764,275.36452a7.88822,7.88822,0,0,0-7.87938,7.87937V521.87632a7.88858,7.88858,0,0,0,7.87938,7.87937h419.858a7.88892,7.88892,0,0,0,7.87937-7.87937V283.24389a7.88857,7.88857,0,0,0-7.87937-7.87937Z" transform="translate(-172 -202.42116)" fill="#fff"></path>    <path d="M297.467,561.27318a3.38619,3.38619,0,0,0-3.068,1.96545l-21.74687,47.27624a3.37672,3.37672,0,0,0,3.06743,4.7883H733.0447a3.37649,3.37649,0,0,0,3.01962-4.88723L712.4262,563.1397a3.35975,3.35975,0,0,0-3.01962-1.86652Z" transform="translate(-172 -202.42116)" fill="#2f2e41"></path>    <circle cx="331.9482" cy="63.93836" r="5.06531" fill="#fff"></circle>    <path d="M458.99686,624.30817a3.382,3.382,0,0,0-3.26035,2.49858l-5.455,20.26124a3.37655,3.37655,0,0,0,3.26035,4.25517H557.28346a3.3761,3.3761,0,0,0,3.19-4.48161L553.4603,626.5803a3.37866,3.37866,0,0,0-3.19111-2.27213Z" transform="translate(-172 -202.42116)" fill="#2f2e41"></path> </svg>