<svg xmlns="http://www.w3.org/2000/svg" viewBox="-0.47 -0.47 149.95 106.45" height="70px"><g id="svgGroup" stroke-linecap="round" fill-rule="evenodd" font-size="9pt" stroke="#108043" stroke-width="0.25mm" fill="#108043" style="stroke:#108043;stroke-width:0.25mm;fill:#108043"><path d="M 85.4 63.7 L 139.9 2 Q 140.357 0.476 141.86 0.113 A 4.437 4.437 0 0 1 142.9 0 Q 146.6 0 147.8 0.9 A 3.565 3.565 0 0 1 148.458 1.529 A 2.386 2.386 0 0 1 149 3.05 A 2.234 2.234 0 0 1 148.852 3.795 Q 148.463 4.88 147.052 6.525 A 23.765 23.765 0 0 1 146.9 6.7 L 98.1 60 A 0.195 0.195 0 0 0 98.169 60.04 Q 98.287 60.086 98.561 60.097 A 4.764 4.764 0 0 0 98.75 60.1 A 2.268 2.268 0 0 0 99.403 60 A 3.11 3.11 0 0 0 99.9 59.8 A 290.7 290.7 0 0 0 134.06 38.249 A 320.117 320.117 0 0 0 136.3 36.6 A 2.624 2.624 0 0 1 136.829 37.139 A 1.947 1.947 0 0 1 137.2 38.3 A 2.102 2.102 0 0 1 137.2 38.316 Q 137.193 39.307 136.25 40.2 Q 135.523 40.889 134.356 42.018 A 603.018 603.018 0 0 0 133.6 42.75 A 67.223 67.223 0 0 1 132.627 43.672 Q 131.191 45.01 128.656 47.276 A 682.379 682.379 0 0 1 127 48.75 A 209.082 209.082 0 0 1 121.012 53.875 A 172.669 172.669 0 0 1 117.55 56.65 A 88.253 88.253 0 0 1 111.452 60.99 A 105.546 105.546 0 0 1 107.4 63.5 A 53.726 53.726 0 0 1 104.047 65.328 Q 100.519 67.081 97.7 67.7 A 0.371 0.371 0 0 0 97.721 67.806 Q 97.799 68.054 98.173 68.657 A 16.22 16.22 0 0 0 98.2 68.7 Q 99.6 70.9 99.6 75.5 Q 99.6 79.396 96.193 85.264 A 53.834 53.834 0 0 1 94.85 87.45 A 58.704 58.704 0 0 1 85.389 98.781 A 54.494 54.494 0 0 1 83.85 100.15 A 40.823 40.823 0 0 1 80.888 102.475 Q 77.839 104.63 75.435 105.25 A 7.359 7.359 0 0 1 73.6 105.5 Q 68.989 105.5 67.525 97.847 A 29.966 29.966 0 0 1 67.3 96.5 Q 67.3 84.1 85.4 63.7 Z M 27.4 37.7 L 19.9 48.1 A 56.321 56.321 0 0 0 19.595 48.478 Q 18.607 49.716 18.6 49.898 A 0.066 0.066 0 0 0 18.6 49.9 A 0.601 0.601 0 0 0 18.603 49.967 Q 18.611 50.034 18.635 50.067 A 0.076 0.076 0 0 0 18.7 50.1 L 19.2 49.8 Q 27.175 44.231 33.212 39.608 A 222.112 222.112 0 0 0 38.3 35.6 Q 39.521 34.728 40.4 34.617 A 1.988 1.988 0 0 1 40.65 34.6 Q 41.6 34.6 41.9 34.8 L 44.7 35.6 Q 45.7 36.1 45.7 36.9 Q 45.7 37.7 45.3 38.2 Q 43.526 40.161 41.273 42.601 A 834.716 834.716 0 0 1 40.95 42.95 A 606.961 606.961 0 0 0 39.803 44.194 Q 38.2 45.938 37.3 46.95 A 939.841 939.841 0 0 0 36.067 48.34 Q 35.417 49.075 34.696 49.891 A 1589.145 1589.145 0 0 0 34.6 50 Q 33.1 51.7 32.45 52.6 A 118.877 118.877 0 0 0 31.808 53.499 Q 31.473 53.972 31.106 54.499 A 196.142 196.142 0 0 0 31 54.65 A 15.289 15.289 0 0 0 30.549 55.335 Q 30.125 56.021 29.918 56.554 A 4.334 4.334 0 0 0 29.9 56.6 Q 29.3 58.9 29.3 60.6 A 0.99 0.99 0 0 0 29.376 61.004 Q 29.596 61.5 30.45 61.5 A 3.265 3.265 0 0 0 31.094 61.423 Q 32.315 61.172 34.65 60.1 Q 36.723 59.149 39.351 57.504 A 78.84 78.84 0 0 0 41.95 55.8 Q 45.204 53.58 50.099 49.923 A 519.557 519.557 0 0 0 53.25 47.55 A 522.192 522.192 0 0 1 58.292 43.77 Q 62.288 40.813 65.6 38.5 A 2.624 2.624 0 0 1 66.129 39.039 A 1.947 1.947 0 0 1 66.5 40.2 A 2.168 2.168 0 0 1 66.036 41.534 A 3.238 3.238 0 0 1 65.6 42 Q 62.56 44.946 57.984 49.291 A 1939.459 1939.459 0 0 1 57.5 49.75 Q 53.749 53.31 46.978 58.717 A 407.569 407.569 0 0 1 42.55 62.2 Q 34.258 68.636 30.085 69.761 A 6.158 6.158 0 0 1 28.5 70 Q 22.359 70 21.116 64.784 A 12.905 12.905 0 0 1 20.8 61.8 Q 20.8 59.091 22.634 56.152 A 18 18 0 0 1 23.2 55.3 L 27.5 49.4 A 23.696 23.696 0 0 0 27.641 49.187 Q 28.014 48.614 28.084 48.42 A 0.223 0.223 0 0 0 28.1 48.35 A 0.041 0.041 0 0 0 28.094 48.327 Q 28.042 48.249 27.5 48.7 Q 10.158 63.152 5.332 65.684 A 12.296 12.296 0 0 1 5.3 65.7 Q 4.545 66.172 3.435 66.199 A 5.6 5.6 0 0 1 3.3 66.2 A 5.26 5.26 0 0 1 2.034 66.062 Q 0.383 65.651 0.072 64.02 A 4.388 4.388 0 0 1 0 63.2 A 3.427 3.427 0 0 1 0.236 61.92 A 3.247 3.247 0 0 1 0.5 61.4 A 143.326 143.326 0 0 0 4.315 57.773 Q 7.706 54.418 9.765 51.82 A 31.236 31.236 0 0 0 10.9 50.3 Q 12.644 48.556 14.52 45.81 A 56.287 56.287 0 0 0 15.95 43.6 Q 18.6 39.3 20.45 36.5 A 19.305 19.305 0 0 1 21.118 35.549 Q 22.506 33.7 23.4 33.7 Q 24.2 33.7 26.05 34.5 A 6.774 6.774 0 0 1 26.76 34.853 Q 27.9 35.515 27.9 36.3 A 2.123 2.123 0 0 1 27.714 37.153 A 3.013 3.013 0 0 1 27.4 37.7 Z M 69.9 41 L 68.4 42.3 Q 67 43.7 63.85 47.45 A 53.133 53.133 0 0 0 62.78 48.763 Q 60.727 51.372 60.7 52.277 A 0.798 0.798 0 0 0 60.7 52.3 Q 60.7 52.5 60.9 52.5 A 2.456 2.456 0 0 0 61.776 52.27 Q 63.788 51.432 68.825 47.542 A 154.751 154.751 0 0 0 69.65 46.9 A 258.45 258.45 0 0 0 72.534 44.611 Q 76.42 41.476 78.191 39.731 A 17.785 17.785 0 0 0 78.85 39.05 Q 80.9 36.8 81.6 36.8 Q 82.686 36.8 83.187 37.677 A 2.184 2.184 0 0 1 83.2 37.7 Q 84.778 37.987 85.224 38.737 A 1.272 1.272 0 0 1 85.4 39.4 A 1.64 1.64 0 0 1 85.277 40.008 Q 85.191 40.224 85.045 40.447 A 3.331 3.331 0 0 1 84.9 40.65 A 12.781 12.781 0 0 1 84.714 40.884 Q 83.906 41.882 80.483 45.93 A 2254.155 2254.155 0 0 1 80 46.5 A 236.669 236.669 0 0 0 78.228 48.617 Q 75.846 51.501 74.79 53.016 A 15.715 15.715 0 0 0 74.4 53.6 A 27.02 27.02 0 0 0 73.417 55.301 Q 72.964 56.149 72.504 57.128 A 52.349 52.349 0 0 0 71.95 58.35 A 43.202 43.202 0 0 0 71.525 59.35 Q 70.884 60.919 70.741 61.71 A 2.243 2.243 0 0 0 70.7 62.1 A 2.42 2.42 0 0 0 70.718 62.406 Q 70.759 62.727 70.897 62.875 A 0.396 0.396 0 0 0 71.2 63 A 1.339 1.339 0 0 0 71.631 62.909 Q 72.547 62.585 74.5 61.1 Q 78.824 57.691 84.946 50.271 A 180.947 180.947 0 0 0 87.5 47.1 Q 93.968 38.891 95.76 35.014 A 9.516 9.516 0 0 0 96.3 33.6 A 27.092 27.092 0 0 1 96.671 32.469 Q 97.494 30.148 98.165 30.009 A 0.418 0.418 0 0 1 98.25 30 Q 99.1 30 100 32.2 A 11.64 11.64 0 0 1 100.702 34.749 Q 100.894 35.929 100.9 37.264 A 19.223 19.223 0 0 1 100.9 37.35 Q 100.9 39.92 96.765 46.017 A 87.773 87.773 0 0 1 95.45 47.9 A 76.685 76.685 0 0 1 85.272 59.378 A 88.506 88.506 0 0 1 82.2 62.1 Q 74.4 68.7 69.2 68.7 A 8.494 8.494 0 0 1 66.865 68.408 Q 64.247 67.658 63.552 64.985 A 8.692 8.692 0 0 1 63.3 62.8 A 13.694 13.694 0 0 1 64.271 57.806 A 17.124 17.124 0 0 1 65.1 56 Q 65.2 55.7 65.2 55.45 A 0.36 0.36 0 0 0 65.188 55.351 Q 65.156 55.24 65.043 55.211 A 0.368 0.368 0 0 0 64.95 55.2 A 0.571 0.571 0 0 0 64.809 55.222 Q 64.582 55.282 64.173 55.504 A 9.064 9.064 0 0 0 64 55.6 L 54.4 63 Q 53.5 64 51.85 64 A 3.591 3.591 0 0 1 49.723 63.291 A 5.422 5.422 0 0 1 48.85 62.5 Q 47.5 61 47.5 59.7 Q 47.5 55.023 56.224 45.905 A 113.577 113.577 0 0 1 58.7 43.4 Q 55.8 43.4 55.8 42.5 Q 55.8 41.969 56.977 41.124 A 11.281 11.281 0 0 1 57.3 40.9 Q 64.257 37.264 66.807 35.44 A 9.316 9.316 0 0 0 67.85 34.6 Q 68.929 33.552 69.952 33.15 A 3.397 3.397 0 0 1 71.2 32.9 A 32.61 32.61 0 0 1 72.641 32.93 Q 76.2 33.088 76.2 34.1 A 1.397 1.397 0 0 1 75.96 34.741 Q 75.1 36.193 71.164 39.843 A 139.919 139.919 0 0 1 69.9 41 Z M 74.2 96.7 A 4.146 4.146 0 0 0 75.739 96.351 Q 78.161 95.365 82 91.6 Q 87.2 86.5 91.4 80.1 Q 94.531 75.33 95.328 72.254 A 7.657 7.657 0 0 0 95.6 70.35 A 7.996 7.996 0 0 0 95.526 69.212 Q 95.206 67 93.5 67 Q 92.658 67 91.553 67.876 A 8.026 8.026 0 0 0 91.4 68 A 55.194 55.194 0 0 0 86.413 73.509 A 74.378 74.378 0 0 0 82.2 79.4 Q 78.001 85.89 75.897 90.285 A 46.272 46.272 0 0 0 75.7 90.7 A 120.503 120.503 0 0 0 74.986 92.256 Q 73.791 94.917 73.626 95.736 A 1.133 1.133 0 0 0 73.6 95.95 A 1.376 1.376 0 0 0 73.625 96.224 Q 73.711 96.646 74.097 96.694 A 0.84 0.84 0 0 0 74.2 96.7 Z" vector-effect="non-scaling-stroke"></path></g></svg>