<svg xmlns="http://www.w3.org/2000/svg" height="70px" viewBox="-0.47 -0.47 563.64 111.85"><g id="svgGroup" stroke-linecap="round" fill-rule="evenodd" font-size="9pt" stroke="#FFCC99" stroke-width="0.25mm" fill="#FFCC99" style="stroke:#FFCC99;stroke-width:0.25mm;fill:#FFCC99"><path d="M 82.724 82.241 A 12.623 12.623 0 0 0 87.5 83.201 A 11.933 11.933 0 0 0 90.248 82.868 A 15.754 15.754 0 0 0 92.95 81.951 A 14.321 14.321 0 0 0 94.844 80.944 A 16.122 16.122 0 0 0 98.1 78.201 A 22.55 22.55 0 0 0 98.381 77.878 Q 99.841 76.172 101.3 73.801 Q 102.9 71.201 104.3 68.501 Q 105.7 65.801 106.7 63.551 A 486.616 486.616 0 0 1 106.709 63.531 Q 107.453 61.857 107.919 60.823 A 202.854 202.854 0 0 1 108.2 60.201 A 16.346 16.346 0 0 0 108.306 59.91 Q 108.451 59.5 108.488 59.307 A 0.597 0.597 0 0 0 108.5 59.201 A 0.875 0.875 0 0 0 108.495 59.103 Q 108.471 58.893 108.338 58.829 A 0.315 0.315 0 0 0 108.2 58.801 Q 107.511 58.801 106.88 59.621 A 5.128 5.128 0 0 0 106.5 60.201 A 22.101 22.101 0 0 1 106.415 60.385 Q 106.031 61.211 105.239 62.76 A 234.143 234.143 0 0 1 104.6 64.001 Q 103.2 66.701 101.25 69.751 A 35.521 35.521 0 0 1 100.88 70.317 A 31.892 31.892 0 0 1 96.9 75.201 Q 95.759 76.341 94.668 77.124 A 11.195 11.195 0 0 1 93.05 78.101 A 9.762 9.762 0 0 1 91.544 78.692 A 7.206 7.206 0 0 1 89.5 79.001 A 6.7 6.7 0 0 1 86.242 78.141 A 9.464 9.464 0 0 1 84.4 76.801 A 22.839 22.839 0 0 1 84.042 76.465 Q 82.875 75.348 81.732 73.946 A 38.359 38.359 0 0 1 79.7 71.201 Q 76.8 66.901 74.75 62.101 A 98.313 98.313 0 0 1 73.311 58.546 A 79.784 79.784 0 0 1 71.4 52.951 Q 70.1 48.601 69.4 45.401 A 962.869 962.869 0 0 1 69.16 44.303 Q 68.663 42.018 68.5 41.201 Q 69.563 41.138 70.879 41.037 A 212.635 212.635 0 0 0 72.55 40.901 A 51.957 51.957 0 0 0 73.497 40.811 Q 74.569 40.7 75.78 40.534 A 96.51 96.51 0 0 0 78 40.201 Q 87.6 38.601 94.75 35.201 Q 101.9 31.801 105.85 27.401 A 22.003 22.003 0 0 0 106.722 26.37 Q 107.947 24.823 108.685 23.276 A 10.778 10.778 0 0 0 109.8 18.601 A 9.188 9.188 0 0 0 109.799 18.496 Q 109.753 14.455 106.15 10.951 A 13.132 13.132 0 0 0 106.129 10.93 Q 103.607 8.489 99.071 6.687 A 44.429 44.429 0 0 0 94.6 5.201 Q 93.584 4.896 92.427 4.63 A 47.425 47.425 0 0 0 90.05 4.151 Q 87.5 3.701 84.8 3.301 Q 85 2.701 85.1 2.101 A 9.456 9.456 0 0 0 85.154 1.737 Q 85.2 1.373 85.2 1.101 A 3.274 3.274 0 0 0 85.199 1.023 Q 85.189 0.585 85.059 0.334 A 0.585 0.585 0 0 0 84.5 0.001 A 1.193 1.193 0 0 0 84.009 0.137 Q 83.015 0.608 81 2.701 Q 77.1 2.201 73.1 1.901 Q 69.1 1.601 64.9 1.601 A 121.707 121.707 0 0 0 63.595 1.608 A 134.806 134.806 0 0 0 54.15 2.051 A 195.906 195.906 0 0 0 52.757 2.169 A 216.698 216.698 0 0 0 42.7 3.301 Q 31 5.001 23.15 9.501 Q 15.3 14.001 11.4 19.851 Q 7.5 25.701 7.5 31.301 Q 7.5 33.326 7.874 35.075 A 12.684 12.684 0 0 0 9.6 39.351 Q 11.7 42.601 15.15 44.301 Q 18.6 46.001 22.5 46.001 A 16.869 16.869 0 0 0 25.713 45.683 A 21.43 21.43 0 0 0 29.4 44.601 Q 33 43.201 35.8 40.301 A 12.007 12.007 0 0 0 37.029 38.734 A 15.382 15.382 0 0 0 38.2 36.601 Q 39.2 34.401 39.6 32.101 Q 39.7 31.601 39.45 31.101 Q 39.304 30.808 39.14 30.686 A 0.398 0.398 0 0 0 38.9 30.601 A 0.328 0.328 0 0 0 38.694 30.672 Q 38.451 30.861 38.349 31.543 A 6.001 6.001 0 0 0 38.3 32.001 A 3.301 3.301 0 0 1 38.211 32.461 Q 37.992 33.305 37.3 34.651 A 11.291 11.291 0 0 1 36.823 35.485 Q 35.955 36.87 34.5 38.401 A 16.59 16.59 0 0 1 33.543 39.361 A 13.744 13.744 0 0 1 29.35 42.051 Q 26.5 43.201 23.7 43.201 Q 19.3 43.201 15.9 40.401 A 8.908 8.908 0 0 1 12.939 35.867 A 12.224 12.224 0 0 1 12.5 32.501 A 15.343 15.343 0 0 1 12.514 31.84 A 17.269 17.269 0 0 1 12.8 29.401 A 15.595 15.595 0 0 1 12.887 29.003 Q 13.86 24.804 17.25 20.651 A 25.896 25.896 0 0 1 17.762 20.043 Q 19.597 17.93 22.051 16.01 A 42.762 42.762 0 0 1 26.9 12.751 A 42.461 42.461 0 0 1 34.059 9.473 A 58.307 58.307 0 0 1 41.5 7.401 Q 47.8 6.001 54.55 5.351 A 149.641 149.641 0 0 1 56.648 5.164 A 133.881 133.881 0 0 1 67.6 4.701 Q 70.5 4.701 73.3 4.801 Q 76.1 4.901 78.8 5.201 A 78.859 78.859 0 0 0 72.857 12.746 A 106.801 106.801 0 0 0 67.25 21.751 Q 61.8 31.501 55.1 43.401 Q 51.1 50.501 46.9 57.051 A 104.319 104.319 0 0 1 44.101 61.198 A 87.068 87.068 0 0 1 38.1 68.751 A 44.332 44.332 0 0 1 35.081 71.824 A 36.01 36.01 0 0 1 28.2 76.851 Q 22.9 79.801 16.6 79.801 A 17.714 17.714 0 0 1 14.637 79.697 Q 11.102 79.303 9.2 77.401 A 9.662 9.662 0 0 1 7.934 75.862 A 6.585 6.585 0 0 1 6.8 72.201 A 7.289 7.289 0 0 1 7.535 68.998 A 9.203 9.203 0 0 1 9 66.851 A 6.749 6.749 0 0 1 9.903 66.012 Q 11.148 65.053 12.859 64.665 A 11.485 11.485 0 0 1 15.4 64.401 Q 16.984 64.401 18.829 64.846 A 23.188 23.188 0 0 1 21.3 65.601 A 1.641 1.641 0 0 0 21.534 65.658 Q 21.775 65.701 22.1 65.701 Q 22.9 65.701 22.9 65.301 Q 22.9 64.902 22.2 64.567 A 4.454 4.454 0 0 0 21.8 64.401 A 32.519 32.519 0 0 0 19.953 63.796 A 26.735 26.735 0 0 0 17 63.101 A 28.921 28.921 0 0 0 15.181 62.842 A 22.908 22.908 0 0 0 12.7 62.701 A 22.362 22.362 0 0 0 10.917 62.77 Q 9.027 62.921 7.448 63.405 A 10.742 10.742 0 0 0 3.3 65.701 A 12.101 12.101 0 0 0 1.668 67.494 A 8.142 8.142 0 0 0 0 72.401 A 7.323 7.323 0 0 0 0.069 73.409 Q 0.306 75.114 1.351 76.716 A 12.205 12.205 0 0 0 3.1 78.801 A 10.978 10.978 0 0 0 5.868 80.717 Q 7.299 81.43 9.103 81.909 A 27.145 27.145 0 0 0 12.8 82.601 Q 15.2 82.901 17.5 82.901 Q 24.9 82.901 31.8 79.651 A 37.394 37.394 0 0 0 37.225 76.507 A 44.3 44.3 0 0 0 44.5 70.101 Q 50.6 63.401 54.55 56.451 Q 58.5 49.501 62.2 42.401 Q 62.6 44.801 63.6 49.251 A 84.601 84.601 0 0 0 64.811 53.964 A 116.443 116.443 0 0 0 66.4 59.051 Q 68.2 64.401 70.75 69.451 A 39.896 39.896 0 0 0 72.348 72.321 A 32.961 32.961 0 0 0 76.8 78.101 A 20.439 20.439 0 0 0 78.334 79.546 A 16.525 16.525 0 0 0 81.95 81.901 A 14.943 14.943 0 0 0 82.724 82.241 Z M 378.96 85.08 A 8.706 8.706 0 0 0 381.4 85.401 Q 385.7 85.401 389.65 82.801 A 30.228 30.228 0 0 0 391.371 81.582 A 25.528 25.528 0 0 0 396.2 76.801 A 58.202 58.202 0 0 0 397.202 75.441 A 67.194 67.194 0 0 0 399.9 71.351 A 130.119 130.119 0 0 0 400.781 69.885 A 114.739 114.739 0 0 0 403.2 65.601 Q 404.7 62.801 405.6 60.801 Q 405.817 60.223 405.877 59.853 A 1.59 1.59 0 0 0 405.9 59.601 A 1.292 1.292 0 0 0 405.897 59.517 Q 405.873 59.138 405.616 59.037 A 0.589 0.589 0 0 0 405.4 59.001 A 0.36 0.36 0 0 0 405.318 59.012 Q 405.103 59.063 404.65 59.351 A 2.035 2.035 0 0 0 404.122 59.84 A 2.63 2.63 0 0 0 403.8 60.401 Q 401.9 64.301 399.65 67.901 A 105.658 105.658 0 0 1 399.368 68.349 A 96.535 96.535 0 0 1 395 74.701 A 33.525 33.525 0 0 1 392.331 77.674 A 24.66 24.66 0 0 1 389.2 80.301 Q 387.348 81.597 385.764 82.093 A 6.243 6.243 0 0 1 383.9 82.401 Q 382.768 82.401 381.902 81.833 A 4.017 4.017 0 0 1 380.85 80.801 A 4.107 4.107 0 0 1 380.516 80.244 Q 379.957 79.13 379.781 77.318 A 18.858 18.858 0 0 1 379.7 75.501 Q 379.7 74.401 379.8 73.001 Q 379.9 71.601 380.2 70.001 A 43.54 43.54 0 0 1 380.88 66.981 A 50.792 50.792 0 0 1 383.2 60.201 Q 385.3 55.201 388 50.701 A 66.918 66.918 0 0 1 388.343 50.135 Q 389.546 48.175 390.768 46.491 A 40.921 40.921 0 0 1 393.5 43.101 A 13.983 13.983 0 0 0 394.052 42.445 Q 396 39.973 396 37.501 A 6.064 6.064 0 0 0 395.99 37.154 Q 395.924 35.993 395.4 35.251 A 1.916 1.916 0 0 0 394.469 34.525 A 2.267 2.267 0 0 0 393.7 34.401 Q 392.875 34.401 391.769 35.16 A 9.807 9.807 0 0 0 391 35.751 Q 389.875 36.7 388.701 38.564 A 27.215 27.215 0 0 0 387.7 40.301 Q 385.1 45.101 380.9 50.801 Q 376.7 56.501 371.65 62.001 A 117.289 117.289 0 0 1 369.747 64.025 A 103.672 103.672 0 0 1 361.3 71.901 A 65.008 65.008 0 0 1 360.249 72.756 Q 357.98 74.56 355.796 75.955 A 37.294 37.294 0 0 1 351.15 78.501 Q 348.346 79.773 345.893 80.309 A 15.899 15.899 0 0 1 342.5 80.701 A 10.866 10.866 0 0 1 340.815 80.575 A 7.621 7.621 0 0 1 336.3 78.251 A 7.315 7.315 0 0 1 334.979 76.251 Q 334 74.097 334 70.901 Q 334 68.201 334.8 64.751 Q 335.225 62.918 335.876 60.873 A 71.793 71.793 0 0 1 337.2 57.101 A 78.387 78.387 0 0 1 338.947 53.155 A 100.143 100.143 0 0 1 341.7 47.801 Q 344.4 42.901 347.15 38.601 Q 349.9 34.301 351.7 31.801 Q 356.5 33.301 361.35 34.001 Q 366.2 34.701 371.4 34.701 A 97.357 97.357 0 0 0 373.451 34.68 A 80 80 0 0 0 376.65 34.551 A 112.554 112.554 0 0 0 376.978 34.53 Q 379.306 34.381 382.2 34.101 A 87.824 87.824 0 0 0 385.977 33.678 Q 389.008 33.269 391.645 32.675 A 44.262 44.262 0 0 0 396.95 31.151 Q 402.9 29.001 406.5 26.051 A 28.664 28.664 0 0 0 407.421 25.264 Q 408.75 24.078 409.761 22.86 A 15.707 15.707 0 0 0 411.7 19.951 Q 412.513 18.351 412.912 16.868 A 10.622 10.622 0 0 0 413.3 14.101 A 11 11 0 0 0 411.763 8.311 A 12.241 12.241 0 0 0 408.7 4.951 Q 405.609 2.566 400.939 1.783 A 29.928 29.928 0 0 0 396 1.401 Q 386.3 1.401 377.5 5.001 Q 368.7 8.601 361.05 14.551 Q 353.4 20.501 347 27.501 A 29.201 29.201 0 0 1 342.524 25.04 A 20.972 20.972 0 0 1 338.2 21.201 Q 337.1 20.001 336.3 18.651 Q 335.5 17.301 335.5 15.701 A 4.935 4.935 0 0 1 335.502 15.545 Q 335.52 14.997 335.658 14.4 A 8.283 8.283 0 0 1 336 13.301 A 4.969 4.969 0 0 0 336.048 13.201 Q 336.207 12.866 336.294 12.549 A 2.825 2.825 0 0 0 336.4 11.801 Q 336.4 10.975 335.892 10.769 A 1.04 1.04 0 0 0 335.5 10.701 Q 334.8 10.701 334.3 11.501 A 2.5 2.5 0 0 0 333.831 11.907 Q 332.8 13.048 332.8 15.701 A 11.174 11.174 0 0 0 332.871 16.95 A 12.933 12.933 0 0 0 333.4 19.401 A 10.691 10.691 0 0 0 333.56 19.87 A 9.162 9.162 0 0 0 335.2 22.701 A 19.437 19.437 0 0 0 336.728 24.288 A 23.398 23.398 0 0 0 339.6 26.551 A 35.314 35.314 0 0 0 340.761 27.3 A 39.791 39.791 0 0 0 345.3 29.701 Q 342.7 32.601 340.45 35.851 Q 338.2 39.101 336.4 42.401 A 75.545 75.545 0 0 0 334.006 47.046 A 61.817 61.817 0 0 0 330.65 55.751 Q 328.7 62.301 328.7 68.001 A 31.567 31.567 0 0 0 328.707 68.649 Q 328.753 70.898 329.122 72.868 A 18.248 18.248 0 0 0 330.5 77.251 A 13.014 13.014 0 0 0 330.673 77.607 A 10.078 10.078 0 0 0 336 82.601 Q 337.4 83.201 338.85 83.451 Q 340.3 83.701 341.8 83.701 A 20.764 20.764 0 0 0 346.509 83.151 A 25.198 25.198 0 0 0 351.9 81.201 A 50.444 50.444 0 0 0 353.802 80.218 A 56.035 56.035 0 0 0 361.8 74.901 A 101.067 101.067 0 0 0 362.988 73.946 A 91.202 91.202 0 0 0 370.6 67.001 Q 373.1 64.438 375.092 62.227 A 103.412 103.412 0 0 0 377.3 59.701 A 11.734 11.734 0 0 0 376.276 61.326 Q 375.314 63.145 374.55 65.801 Q 373.4 69.801 373.4 73.901 A 20.562 20.562 0 0 0 373.653 77.189 A 15.615 15.615 0 0 0 375.2 81.951 A 5.997 5.997 0 0 0 378.96 85.08 Z M 276.3 50.601 L 294 50.601 A 10.742 10.742 0 0 0 295.023 50.545 Q 296.486 50.404 298.75 49.901 Q 301.9 49.201 305.2 47.851 A 26.682 26.682 0 0 0 308.351 46.326 A 20.451 20.451 0 0 0 310.85 44.651 A 7.521 7.521 0 0 0 312.114 43.409 A 4.755 4.755 0 0 0 313.2 40.401 A 4.351 4.351 0 0 0 313.002 39.138 Q 312.841 38.606 312.549 38.045 A 8.437 8.437 0 0 0 312.3 37.601 A 1.193 1.193 0 0 1 312.106 37.041 A 1.5 1.5 0 0 1 312.1 36.901 A 1.052 1.052 0 0 1 312.121 36.678 Q 312.191 36.357 312.49 36.309 A 0.702 0.702 0 0 1 312.6 36.301 A 0.644 0.644 0 0 1 313.008 36.45 Q 313.105 36.528 313.195 36.645 A 1.68 1.68 0 0 1 313.3 36.801 A 9.141 9.141 0 0 1 314.364 38.85 A 7.188 7.188 0 0 1 314.8 41.301 A 7.316 7.316 0 0 1 313.463 45.498 A 9.629 9.629 0 0 1 312.85 46.301 A 15.106 15.106 0 0 1 310.397 48.589 Q 309.186 49.501 307.696 50.299 A 24.82 24.82 0 0 1 307.6 50.351 A 27.862 27.862 0 0 1 302.349 52.463 A 32.952 32.952 0 0 1 300.25 53.001 Q 296.2 53.901 292 53.801 A 11.144 11.144 0 0 1 293.8 55.699 A 9.252 9.252 0 0 1 294.8 57.401 Q 295.7 59.401 295.7 61.601 A 13.677 13.677 0 0 1 294.843 66.277 A 18.471 18.471 0 0 1 293.5 69.151 A 23.559 23.559 0 0 1 289.943 73.837 A 29.944 29.944 0 0 1 287.3 76.251 A 31.751 31.751 0 0 1 280.541 80.423 A 37.667 37.667 0 0 1 277.95 81.501 A 31.716 31.716 0 0 1 269.717 83.343 A 38.322 38.322 0 0 1 266.2 83.501 A 44.984 44.984 0 0 1 260.233 83.128 Q 257.193 82.721 254.64 81.867 A 22.935 22.935 0 0 1 252.1 80.851 A 23.206 23.206 0 0 1 247.78 78.233 A 17.128 17.128 0 0 1 243.75 73.851 Q 241 69.501 241 64.601 Q 241 59.101 244.3 53.651 A 25.323 25.323 0 0 1 249.529 47.566 A 34.085 34.085 0 0 1 254.15 44.251 Q 260.508 40.416 269.646 39.362 A 55.607 55.607 0 0 1 270.2 39.301 A 13.304 13.304 0 0 1 268.292 35.573 A 15.368 15.368 0 0 1 268.1 34.951 A 18.703 18.703 0 0 1 267.534 32.274 A 15.002 15.002 0 0 1 267.4 30.301 A 16.897 16.897 0 0 1 268.619 24.164 A 15.763 15.763 0 0 1 270.4 20.951 A 25.103 25.103 0 0 1 277.011 14.637 A 29.022 29.022 0 0 1 277.85 14.101 Q 282.4 11.301 287.6 9.851 A 40.863 40.863 0 0 1 293.108 8.698 A 32.108 32.108 0 0 1 297.4 8.401 A 22.407 22.407 0 0 1 302.377 8.975 A 25.152 25.152 0 0 1 303.1 9.151 A 11.537 11.537 0 0 1 306.373 10.537 A 10.353 10.353 0 0 1 308 11.801 Q 309.93 13.634 309.998 16.957 A 11.959 11.959 0 0 1 310 17.201 Q 310 20.101 308.2 22.401 A 6.676 6.676 0 0 1 306.803 23.757 A 5.084 5.084 0 0 1 303.8 24.701 A 4.504 4.504 0 0 1 300.544 23.344 A 5.79 5.79 0 0 1 300.5 23.301 A 5.031 5.031 0 0 1 299.549 22.012 A 4.187 4.187 0 0 1 299.1 20.101 A 5.336 5.336 0 0 1 299.354 18.421 A 4.441 4.441 0 0 1 300.45 16.651 Q 301.8 15.301 303.8 15.301 A 3.27 3.27 0 0 1 304.573 15.4 Q 305.167 15.545 305.85 15.901 Q 307 16.501 307.3 17.101 Q 307.39 16.739 307.399 16.133 A 9.202 9.202 0 0 0 307.4 16.001 A 5.127 5.127 0 0 0 307.188 14.478 A 3.707 3.707 0 0 0 305.2 12.201 Q 303 11.101 300.5 11.101 A 20.15 20.15 0 0 0 297.035 11.423 Q 295.355 11.717 293.496 12.279 A 41.244 41.244 0 0 0 291.2 13.051 A 29.83 29.83 0 0 0 284.852 16.337 A 38.672 38.672 0 0 0 280.9 19.401 Q 279.353 20.776 277.732 22.889 A 38.462 38.462 0 0 0 277.2 23.601 Q 275.3 26.201 274 29.151 A 15.053 15.053 0 0 0 272.786 33.557 A 13.833 13.833 0 0 0 272.7 35.101 A 11.145 11.145 0 0 0 272.864 37.062 A 8.123 8.123 0 0 0 273.5 39.101 Q 275 39.101 276.95 38.951 A 52.089 52.089 0 0 1 280.445 38.803 A 57.966 57.966 0 0 1 281 38.801 Q 282.892 38.801 284.201 39.383 A 4.839 4.839 0 0 1 285.1 39.901 Q 286.134 40.659 286.456 41.561 A 2.485 2.485 0 0 1 286.6 42.401 Q 286.6 43.194 285.845 43.924 A 4.666 4.666 0 0 1 285.4 44.301 Q 284.277 45.143 281.928 45.197 A 14.259 14.259 0 0 1 281.6 45.201 A 12.922 12.922 0 0 1 277.819 44.662 A 11.453 11.453 0 0 1 275.65 43.751 A 25.391 25.391 0 0 1 273.824 42.656 Q 272.958 42.083 272.267 41.502 A 12.072 12.072 0 0 1 271.5 40.801 A 22.512 22.512 0 0 0 264.713 42.792 A 19.829 19.829 0 0 0 260.3 45.701 Q 255.7 49.701 253.3 55.151 Q 250.9 60.601 250.9 66.001 A 19.696 19.696 0 0 0 252.032 72.711 A 18.641 18.641 0 0 0 252.55 74.001 Q 254.2 77.701 257.6 79.951 A 12.956 12.956 0 0 0 261.857 81.739 Q 263.844 82.201 266.2 82.201 A 25.951 25.951 0 0 0 272.428 81.477 A 22.303 22.303 0 0 0 276.05 80.251 A 26.717 26.717 0 0 0 281.69 76.94 A 23.772 23.772 0 0 0 283.7 75.201 Q 286.9 72.101 288.65 68.651 A 18.334 18.334 0 0 0 289.783 65.922 Q 290.4 63.982 290.4 62.201 A 5.993 5.993 0 0 0 289.878 59.678 A 5.869 5.869 0 0 0 288.55 57.851 A 10.087 10.087 0 0 0 286.027 56.128 A 13.936 13.936 0 0 0 283.7 55.251 A 22.799 22.799 0 0 0 278.561 54.431 A 26.335 26.335 0 0 0 277.3 54.401 Q 273.8 54.401 270.35 55.351 Q 266.9 56.301 264.5 58.251 Q 262.1 60.201 261.6 63.201 A 1.906 1.906 0 0 1 261.589 63.399 Q 261.577 63.518 261.55 63.651 A 2.842 2.842 0 0 0 261.516 63.86 Q 261.5 63.988 261.5 64.101 A 6.292 6.292 0 0 0 262.129 66.797 A 9.03 9.03 0 0 0 263.15 68.451 A 10.757 10.757 0 0 0 264.796 70.14 Q 265.665 70.866 266.776 71.547 A 23.447 23.447 0 0 0 268.3 72.401 Q 269.035 72.727 269.17 73.521 A 2.269 2.269 0 0 1 269.2 73.901 Q 269.2 74.969 268.258 74.529 A 2.384 2.384 0 0 1 268.2 74.501 Q 262.7 71.601 260.15 68.151 Q 258.284 65.626 257.783 63.289 A 8.046 8.046 0 0 1 257.6 61.601 Q 257.6 57.295 262.041 54.133 A 17.576 17.576 0 0 1 262.45 53.851 A 16.721 16.721 0 0 1 266.974 51.777 Q 270.886 50.601 276.3 50.601 Z M 190.1 44.401 L 196.3 44.401 A 18.479 18.479 0 0 1 195.726 44.872 Q 195.206 45.282 194.55 45.751 Q 193.685 46.369 192.921 47.497 A 10.92 10.92 0 0 0 192.6 48.001 A 118.699 118.699 0 0 0 189.498 53.614 A 98.021 98.021 0 0 0 187.9 56.851 Q 185.9 61.101 183.6 65.901 A 29.965 29.965 0 0 0 182.752 67.837 Q 182.281 69.032 182 70.101 A 18.121 18.121 0 0 0 181.695 71.455 Q 181.5 72.526 181.5 73.401 Q 181.5 76.701 183.7 76.701 A 3.909 3.909 0 0 0 185.298 76.32 Q 186.648 75.713 188.246 74.14 A 24.145 24.145 0 0 0 189.5 72.801 Q 192.3 69.501 195.15 64.951 Q 198 60.401 200.65 55.551 Q 203.3 50.701 205.3 46.601 A 3.731 3.731 0 0 1 207.943 44.53 A 5.769 5.769 0 0 1 209.2 44.401 L 214.7 44.401 Q 211.8 46.401 210.25 49.601 A 69.574 69.574 0 0 0 209.091 52.133 Q 208.554 53.365 207.981 54.782 A 155.004 155.004 0 0 0 206.8 57.801 Q 204.7 63.301 202.85 69.151 Q 201 75.001 198.7 80.901 Q 201.404 80 204.678 78.293 A 65.418 65.418 0 0 0 206.15 77.501 Q 210.3 75.201 213.2 70.901 A 74.635 74.635 0 0 0 215.702 66.951 A 60.137 60.137 0 0 0 217.15 64.351 Q 218.669 61.45 219.383 60.033 A 84.633 84.633 0 0 0 219.5 59.801 Q 219.9 58.801 220.6 58.801 Q 221.3 58.801 221.3 59.701 A 1.97 1.97 0 0 1 221.234 60.191 Q 221.159 60.482 221 60.801 A 231.374 231.374 0 0 1 219.127 64.469 Q 218.192 66.258 217.341 67.796 A 111.084 111.084 0 0 1 216.35 69.551 A 34.719 34.719 0 0 1 213.917 73.228 A 27.807 27.807 0 0 1 211.85 75.651 Q 209.4 78.201 205.9 80.151 Q 203.254 81.625 199.523 83.127 A 96.27 96.27 0 0 1 197 84.101 A 137.31 137.31 0 0 1 193.746 89.612 A 164.655 164.655 0 0 1 191.55 93.051 Q 188.5 97.701 184.65 101.751 Q 180.8 105.801 176.15 108.351 A 20.89 20.89 0 0 1 166.249 110.898 A 24.405 24.405 0 0 1 165.9 110.901 A 20.856 20.856 0 0 1 163.349 110.756 Q 160.608 110.417 159.03 109.284 A 5.371 5.371 0 0 1 158.5 108.851 Q 156.3 106.801 156.3 104.001 Q 156.3 102.501 156.7 101.401 A 20.945 20.945 0 0 1 156.989 100.655 Q 157.35 99.77 157.9 98.601 Q 159.3 95.701 161.8 93.601 Q 164.3 91.501 167.2 90.201 A 53.089 53.089 0 0 1 173.509 87.786 A 69.075 69.075 0 0 1 179.05 86.301 A 207.852 207.852 0 0 0 188.716 83.882 A 187.281 187.281 0 0 0 191.8 83.001 A 45.839 45.839 0 0 0 193.829 79.018 A 59.727 59.727 0 0 0 195.3 75.451 A 180.091 180.091 0 0 0 197.87 68.166 A 163.18 163.18 0 0 0 198.2 67.151 A 956.938 956.938 0 0 0 198.819 65.216 Q 199.7 62.451 200.3 60.501 Q 199.475 62.013 198.343 63.975 A 288.876 288.876 0 0 1 197.25 65.851 Q 195.4 69.001 193.1 72.001 A 28.289 28.289 0 0 1 190.245 75.211 A 23.314 23.314 0 0 1 188.15 77.001 A 10.487 10.487 0 0 1 185.697 78.403 A 8.346 8.346 0 0 1 182.6 79.001 A 6.097 6.097 0 0 1 181.712 78.93 Q 181.266 78.865 180.764 78.737 A 13.531 13.531 0 0 1 179.95 78.501 A 5.773 5.773 0 0 1 177.553 76.985 A 7.056 7.056 0 0 1 177.25 76.651 A 4.242 4.242 0 0 1 176.484 75.271 Q 176.268 74.647 176.174 73.88 A 10.473 10.473 0 0 1 176.1 72.601 A 10.947 10.947 0 0 1 177.273 67.704 A 12.71 12.71 0 0 1 177.35 67.551 Q 178.6 65.101 179.7 62.801 A 1.048 1.048 0 0 1 179.408 62.757 Q 179.236 62.707 179.05 62.601 Q 178.7 62.401 178.7 62.001 A 1.703 1.703 0 0 1 178.817 61.388 A 2.091 2.091 0 0 1 178.9 61.201 Q 179.3 60.401 179.8 59.501 Q 180.3 58.601 180.7 57.601 Q 182.2 54.501 183.7 51.651 A 345.039 345.039 0 0 0 184.936 49.281 Q 185.495 48.199 185.983 47.232 A 192.341 192.341 0 0 0 186.3 46.601 Q 187.231 44.74 189.306 44.453 A 5.802 5.802 0 0 1 190.1 44.401 Z M 546.98 79.315 A 3.538 3.538 0 0 0 547.3 79.301 A 5.72 5.72 0 0 0 548.135 79.161 Q 549.122 78.921 550.098 78.326 A 10.307 10.307 0 0 0 551.65 77.151 Q 553.8 75.201 555.8 72.251 Q 557.8 69.301 559.5 66.151 A 185.99 185.99 0 0 0 559.968 65.278 Q 561.369 62.649 562.4 60.501 A 12.457 12.457 0 0 0 562.459 60.34 Q 562.637 59.845 562.684 59.569 A 1.034 1.034 0 0 0 562.7 59.401 Q 562.7 58.701 562.2 58.701 A 1.061 1.061 0 0 0 561.578 58.891 Q 561.225 59.137 561 59.701 Q 560.1 61.501 558.6 64.351 Q 557.1 67.201 555.3 70.001 A 41.04 41.04 0 0 1 555.071 70.353 Q 553.383 72.921 551.65 74.701 A 11.873 11.873 0 0 1 551.511 74.841 Q 549.74 76.601 548.2 76.601 Q 546.6 76.601 546.6 73.801 A 5.026 5.026 0 0 1 546.609 73.518 Q 546.637 73.03 546.75 72.201 A 116.096 116.096 0 0 1 546.818 71.713 Q 546.889 71.206 546.947 70.832 A 30.145 30.145 0 0 1 547 70.501 A 22.112 22.112 0 0 1 547.299 69.383 Q 547.551 68.528 547.898 67.563 A 47.962 47.962 0 0 1 548.7 65.501 Q 549.9 62.601 551.4 59.801 Q 552.9 57.001 554.25 54.801 A 40.561 40.561 0 0 1 554.881 53.803 Q 555.797 52.404 556.4 51.801 Q 555.2 52.001 554.1 51.701 Q 553 51.401 551.9 51.401 A 5.83 5.83 0 0 0 551.247 51.436 A 4.174 4.174 0 0 0 548.2 53.201 A 30.82 30.82 0 0 0 547.58 54.094 Q 547.054 54.879 546.497 55.802 A 61.644 61.644 0 0 0 545.4 57.701 A 258.465 258.465 0 0 1 544.035 60.152 A 218.815 218.815 0 0 1 541.1 65.201 Q 539 68.701 536.4 71.901 A 25.68 25.68 0 0 1 535.307 73.093 Q 533.428 75.009 531.757 75.781 A 5.142 5.142 0 0 1 529.6 76.301 A 3.501 3.501 0 0 1 529.341 76.291 Q 527.1 76.125 527.1 73.001 L 527.1 72.251 A 1.295 1.295 0 0 1 527.1 72.242 Q 527.102 71.991 527.2 71.401 A 17.793 17.793 0 0 1 527.438 70.133 A 20.776 20.776 0 0 1 528.3 67.301 A 48.058 48.058 0 0 1 529.01 65.54 A 37.407 37.407 0 0 1 529.95 63.501 A 75.383 75.383 0 0 1 530.072 63.258 Q 530.631 62.149 530.98 61.556 A 7.503 7.503 0 0 1 531.2 61.201 A 55.511 55.511 0 0 1 531.715 60.378 A 60.452 60.452 0 0 1 537.55 52.701 A 39.977 39.977 0 0 1 539.163 50.989 Q 540.497 49.658 541.796 48.643 A 19.114 19.114 0 0 1 544.6 46.801 Q 545.906 46.148 547.036 45.882 A 6.412 6.412 0 0 1 548.5 45.701 Q 551.066 45.701 552.362 47.48 A 5.909 5.909 0 0 1 553.2 49.201 A 2.381 2.381 0 0 0 553.427 49.246 Q 554.073 49.342 554.5 49.001 A 1.638 1.638 0 0 0 554.603 48.911 A 1.208 1.208 0 0 0 555 48.001 Q 555 47.101 554.3 46.401 Q 552.7 44.701 550.6 43.951 Q 548.5 43.201 546.2 43.201 A 15.8 15.8 0 0 0 542.099 43.755 A 20.14 20.14 0 0 0 538.05 45.351 Q 533.9 47.501 531 51.001 A 57.715 57.715 0 0 0 530.128 52.093 Q 528.293 54.449 526.924 56.732 A 32.715 32.715 0 0 0 524.5 61.601 A 37.783 37.783 0 0 0 523.863 63.346 Q 522.513 67.36 522.5 70.638 A 16.061 16.061 0 0 0 522.5 70.701 Q 522.5 74.501 524.1 76.851 A 6.732 6.732 0 0 0 524.631 77.536 A 4.712 4.712 0 0 0 528.3 79.201 Q 529.7 79.201 531.4 78.401 A 9.666 9.666 0 0 0 532.208 77.971 Q 533.545 77.179 535 75.801 A 28.247 28.247 0 0 0 536.214 74.568 A 32.422 32.422 0 0 0 539.1 70.951 Q 540.525 68.888 541.556 67.304 A 87.33 87.33 0 0 0 542.2 66.301 A 35.301 35.301 0 0 0 541.801 67.963 Q 541.552 69.13 541.427 70.16 A 16.134 16.134 0 0 0 541.3 72.101 A 13.428 13.428 0 0 0 541.371 73.52 Q 541.573 75.416 542.35 76.601 A 8.587 8.587 0 0 0 542.407 76.687 Q 543.438 78.217 544.8 78.801 A 8.256 8.256 0 0 0 545.144 78.939 Q 546.142 79.315 546.98 79.315 Z M 117.3 44.401 L 123.5 44.401 Q 121.8 45.701 120.45 47.251 Q 119.1 48.801 117.1 52.901 L 116.4 54.301 Q 115.7 55.701 114.65 57.851 Q 113.6 60.001 112.55 62.201 Q 111.506 64.388 110.808 65.883 A 208.92 208.92 0 0 0 110.8 65.901 A 46.378 46.378 0 0 0 110.107 67.462 Q 109.381 69.191 109.1 70.351 Q 108.7 72.001 108.7 73.401 Q 108.7 76.701 110.9 76.701 A 3.909 3.909 0 0 0 112.498 76.32 Q 113.848 75.713 115.446 74.14 A 24.145 24.145 0 0 0 116.7 72.801 Q 119.5 69.501 122.2 64.901 Q 124.9 60.301 127.35 55.401 A 1154.438 1154.438 0 0 0 129.526 51.027 Q 130.691 48.673 131.7 46.601 A 3.731 3.731 0 0 1 134.343 44.53 A 5.769 5.769 0 0 1 135.6 44.401 L 141.1 44.401 Q 139.6 45.601 138.6 46.651 A 9.964 9.964 0 0 0 137.765 47.661 Q 137.199 48.439 136.65 49.451 Q 135.923 50.791 134.814 52.98 A 324.893 324.893 0 0 0 134.1 54.401 Q 132.8 57.101 131.35 60.151 Q 129.9 63.201 128.8 65.901 A 38.103 38.103 0 0 0 128.191 67.491 Q 127.606 69.132 127.4 70.301 A 33.487 33.487 0 0 1 127.35 70.77 Q 127.298 71.221 127.247 71.539 A 7.292 7.292 0 0 1 127.2 71.801 Q 127.1 72.301 127.1 72.901 Q 127.1 74.801 127.75 75.601 A 2.435 2.435 0 0 0 128.249 76.072 A 1.804 1.804 0 0 0 129.3 76.401 Q 131.126 76.401 132.98 74.838 A 12.231 12.231 0 0 0 134.15 73.701 Q 136.562 71.043 138.78 67.222 A 52.232 52.232 0 0 0 138.85 67.101 A 98.24 98.24 0 0 0 141.176 62.84 A 77.58 77.58 0 0 0 142.7 59.701 A 5.536 5.536 0 0 1 142.94 59.299 Q 143.356 58.669 143.721 58.607 A 0.471 0.471 0 0 1 143.8 58.601 Q 144.4 58.601 144.4 59.301 A 1.593 1.593 0 0 1 144.346 59.695 Q 144.255 60.052 144.008 60.487 A 5.151 5.151 0 0 1 144 60.501 A 104.761 104.761 0 0 1 142.942 62.735 Q 142.385 63.876 141.74 65.143 A 187.472 187.472 0 0 1 141.3 66.001 Q 139.7 69.101 137.7 72.101 A 24.618 24.618 0 0 1 135.393 75.068 A 19.534 19.534 0 0 1 133.3 77.051 A 9.006 9.006 0 0 1 130.901 78.474 A 7.629 7.629 0 0 1 128.1 79.001 Q 125.6 79.001 124 77.151 A 6.07 6.07 0 0 1 122.806 74.934 Q 122.4 73.614 122.4 71.901 Q 122.4 69.201 123.4 66.101 A 59.81 59.81 0 0 1 120.307 70.976 A 67.139 67.139 0 0 1 119.5 72.101 A 27.777 27.777 0 0 1 117.004 75.068 A 21.831 21.831 0 0 1 114.8 77.051 Q 112.569 78.791 110.339 78.978 A 6.43 6.43 0 0 1 109.8 79.001 A 6.097 6.097 0 0 1 108.912 78.93 Q 108.466 78.865 107.964 78.737 A 13.531 13.531 0 0 1 107.15 78.501 A 5.773 5.773 0 0 1 104.753 76.985 A 7.056 7.056 0 0 1 104.45 76.651 A 4.242 4.242 0 0 1 103.684 75.271 Q 103.468 74.647 103.374 73.88 A 10.473 10.473 0 0 1 103.3 72.601 A 10.947 10.947 0 0 1 104.473 67.704 A 12.71 12.71 0 0 1 104.55 67.551 Q 105.8 65.101 106.9 62.801 A 1.048 1.048 0 0 1 106.608 62.757 Q 106.436 62.707 106.25 62.601 Q 105.9 62.401 105.9 62.001 A 1.703 1.703 0 0 1 106.017 61.388 A 2.091 2.091 0 0 1 106.1 61.201 Q 106.5 60.401 107 59.501 Q 107.5 58.601 107.9 57.601 Q 109.4 54.501 110.9 51.651 A 345.039 345.039 0 0 0 112.136 49.281 Q 112.695 48.199 113.183 47.232 A 192.341 192.341 0 0 0 113.5 46.601 Q 114.431 44.74 116.506 44.453 A 5.802 5.802 0 0 1 117.3 44.401 Z M 414.8 44.401 L 421 44.401 Q 419.3 45.701 417.95 47.251 Q 416.6 48.801 414.6 52.901 L 413.9 54.301 Q 413.2 55.701 412.15 57.851 Q 411.1 60.001 410.05 62.201 Q 409.006 64.388 408.308 65.883 A 208.92 208.92 0 0 0 408.3 65.901 A 46.378 46.378 0 0 0 407.607 67.462 Q 406.881 69.191 406.6 70.351 Q 406.2 72.001 406.2 73.401 Q 406.2 76.701 408.4 76.701 A 3.909 3.909 0 0 0 409.998 76.32 Q 411.348 75.713 412.946 74.14 A 24.145 24.145 0 0 0 414.2 72.801 Q 417 69.501 419.7 64.901 Q 422.4 60.301 424.85 55.401 A 1154.438 1154.438 0 0 0 427.026 51.027 Q 428.191 48.673 429.2 46.601 A 3.731 3.731 0 0 1 431.843 44.53 A 5.769 5.769 0 0 1 433.1 44.401 L 438.6 44.401 Q 437.1 45.601 436.1 46.651 A 9.964 9.964 0 0 0 435.265 47.661 Q 434.699 48.439 434.15 49.451 Q 433.423 50.791 432.314 52.98 A 324.893 324.893 0 0 0 431.6 54.401 Q 430.3 57.101 428.85 60.151 Q 427.4 63.201 426.3 65.901 A 38.103 38.103 0 0 0 425.691 67.491 Q 425.106 69.132 424.9 70.301 A 33.487 33.487 0 0 1 424.85 70.77 Q 424.798 71.221 424.747 71.539 A 7.292 7.292 0 0 1 424.7 71.801 Q 424.6 72.301 424.6 72.901 Q 424.6 74.801 425.25 75.601 A 2.435 2.435 0 0 0 425.749 76.072 A 1.804 1.804 0 0 0 426.8 76.401 Q 428.626 76.401 430.48 74.838 A 12.231 12.231 0 0 0 431.65 73.701 Q 434.062 71.043 436.28 67.222 A 52.232 52.232 0 0 0 436.35 67.101 A 98.24 98.24 0 0 0 438.676 62.84 A 77.58 77.58 0 0 0 440.2 59.701 A 5.536 5.536 0 0 1 440.44 59.299 Q 440.856 58.669 441.221 58.607 A 0.471 0.471 0 0 1 441.3 58.601 Q 441.9 58.601 441.9 59.301 A 1.593 1.593 0 0 1 441.846 59.695 Q 441.755 60.052 441.508 60.487 A 5.151 5.151 0 0 1 441.5 60.501 A 104.761 104.761 0 0 1 440.442 62.735 Q 439.885 63.876 439.24 65.143 A 187.472 187.472 0 0 1 438.8 66.001 Q 437.2 69.101 435.2 72.101 A 24.618 24.618 0 0 1 432.893 75.068 A 19.534 19.534 0 0 1 430.8 77.051 A 9.006 9.006 0 0 1 428.401 78.474 A 7.629 7.629 0 0 1 425.6 79.001 Q 423.1 79.001 421.5 77.151 A 6.07 6.07 0 0 1 420.306 74.934 Q 419.9 73.614 419.9 71.901 Q 419.9 69.201 420.9 66.101 A 59.81 59.81 0 0 1 417.807 70.976 A 67.139 67.139 0 0 1 417 72.101 A 27.777 27.777 0 0 1 414.504 75.068 A 21.831 21.831 0 0 1 412.3 77.051 Q 410.069 78.791 407.839 78.978 A 6.43 6.43 0 0 1 407.3 79.001 A 6.097 6.097 0 0 1 406.412 78.93 Q 405.966 78.865 405.464 78.737 A 13.531 13.531 0 0 1 404.65 78.501 A 5.773 5.773 0 0 1 402.253 76.985 A 7.056 7.056 0 0 1 401.95 76.651 A 4.242 4.242 0 0 1 401.184 75.271 Q 400.968 74.647 400.874 73.88 A 10.473 10.473 0 0 1 400.8 72.601 A 10.947 10.947 0 0 1 401.973 67.704 A 12.71 12.71 0 0 1 402.05 67.551 Q 403.3 65.101 404.4 62.801 A 1.048 1.048 0 0 1 404.108 62.757 Q 403.936 62.707 403.75 62.601 Q 403.4 62.401 403.4 62.001 A 1.703 1.703 0 0 1 403.517 61.388 A 2.091 2.091 0 0 1 403.6 61.201 Q 404 60.401 404.5 59.501 Q 405 58.601 405.4 57.601 Q 406.9 54.501 408.4 51.651 A 345.039 345.039 0 0 0 409.636 49.281 Q 410.195 48.199 410.683 47.232 A 192.341 192.341 0 0 0 411 46.601 Q 411.931 44.74 414.006 44.453 A 5.802 5.802 0 0 1 414.8 44.401 Z M 161.025 77.45 A 4.866 4.866 0 0 0 164.6 79.001 A 8.373 8.373 0 0 0 167.587 78.456 A 9.855 9.855 0 0 0 170.2 76.951 A 20.378 20.378 0 0 0 172.155 75.189 A 24.434 24.434 0 0 0 174.9 71.801 A 60.175 60.175 0 0 0 175.668 70.638 A 53.462 53.462 0 0 0 178.55 65.601 A 174.476 174.476 0 0 0 178.703 65.294 Q 180.145 62.396 181 60.401 A 1.639 1.639 0 0 0 181.075 60.276 Q 181.131 60.175 181.162 60.079 A 0.745 0.745 0 0 0 181.2 59.851 L 181.2 59.501 A 2.078 2.078 0 0 0 181.183 59.22 Q 181.098 58.601 180.6 58.601 A 0.855 0.855 0 0 0 180.332 58.644 Q 179.801 58.818 179.4 59.701 Q 178.7 61.301 177.3 64.051 A 63.269 63.269 0 0 1 176.575 65.432 A 72.231 72.231 0 0 1 174.1 69.651 A 32.133 32.133 0 0 1 172.263 72.276 A 23.738 23.738 0 0 1 170.35 74.451 Q 168.4 76.401 166.5 76.401 A 3.257 3.257 0 0 1 165.767 76.324 A 1.951 1.951 0 0 1 164.5 75.451 A 3.746 3.746 0 0 1 164.032 74.343 A 4.74 4.74 0 0 1 163.9 73.201 A 9.817 9.817 0 0 1 163.941 72.321 Q 164.01 71.558 164.193 70.697 A 20.637 20.637 0 0 1 164.65 68.951 A 73.739 73.739 0 0 1 164.908 68.125 Q 165.472 66.357 165.8 65.701 A 90.433 90.433 0 0 1 166.768 63.444 Q 167.934 60.816 169.55 57.551 Q 171.9 52.801 174.65 47.451 Q 177.4 42.101 180.25 36.851 Q 183.1 31.601 185.6 27.201 A 252.414 252.414 0 0 1 185.72 26.989 Q 188.145 22.732 189.95 19.951 Q 191.8 17.101 192.4 16.501 A 9.735 9.735 0 0 1 191.653 16.529 A 10.435 10.435 0 0 1 189.75 16.351 A 18.654 18.654 0 0 0 189.666 16.335 Q 188.366 16.101 187.3 16.101 Q 185.4 16.101 184.05 17.051 A 3.965 3.965 0 0 0 183.353 17.7 Q 182.654 18.504 181.918 19.955 A 26.361 26.361 0 0 0 181.2 21.501 Q 180.5 23.001 179.2 25.851 Q 177.9 28.701 176.2 32.101 Q 174.5 35.501 172.8 38.951 Q 171.1 42.401 169.6 45.201 Q 166.4 43.301 162.8 43.301 A 15.324 15.324 0 0 0 159.443 43.675 A 17.753 17.753 0 0 0 154.9 45.401 Q 151 47.501 148 51.001 A 32.834 32.834 0 0 0 145.934 53.757 A 44.681 44.681 0 0 0 143.95 57.001 Q 142 60.501 140.75 64.201 A 30.038 30.038 0 0 0 140.599 64.661 Q 139.5 68.095 139.5 71.001 A 11.547 11.547 0 0 0 139.69 73.144 A 8.42 8.42 0 0 0 140.65 75.801 A 5.568 5.568 0 0 0 142.726 77.851 A 8.068 8.068 0 0 0 144.5 78.601 A 9.143 9.143 0 0 0 145.244 78.772 A 7.458 7.458 0 0 0 146.6 78.901 A 7.92 7.92 0 0 0 148.991 78.541 A 8.422 8.422 0 0 0 151.85 76.951 A 21.781 21.781 0 0 0 152.142 76.704 A 23.277 23.277 0 0 0 156.05 72.351 A 201.128 201.128 0 0 0 156.057 72.34 Q 156.978 71.021 157.788 69.813 A 117.119 117.119 0 0 0 159.3 67.501 A 11.907 11.907 0 0 0 159.178 67.936 A 10.367 10.367 0 0 0 158.9 69.451 Q 158.8 70.401 158.8 71.301 A 11.445 11.445 0 0 0 158.866 72.551 A 8.911 8.911 0 0 0 159.2 74.201 A 13.421 13.421 0 0 0 159.41 74.829 Q 159.727 75.704 160.1 76.301 A 7.761 7.761 0 0 0 161.025 77.45 Z M 445.9 49.601 L 444.7 52.901 Q 443.858 55.351 442.517 58.446 A 125.811 125.811 0 0 1 441.65 60.401 Q 439.7 64.701 437.35 68.701 A 38.496 38.496 0 0 1 435.416 71.687 Q 433.984 73.676 432.5 75.101 A 0.675 0.675 0 0 1 432.019 75.301 A 0.886 0.886 0 0 1 432 75.301 A 0.489 0.489 0 0 1 431.577 75.078 Q 431.519 74.995 431.477 74.88 A 1.291 1.291 0 0 1 431.45 74.801 Q 431.309 74.331 431.83 73.685 A 3.632 3.632 0 0 1 431.9 73.601 A 69.686 69.686 0 0 0 437.709 64.392 A 79.466 79.466 0 0 0 438.9 62.051 Q 442 55.701 444.15 49.101 Q 446.3 42.501 447.3 36.901 A 6.594 6.594 0 0 1 447.536 35.984 Q 447.693 35.525 447.909 35.167 A 2.863 2.863 0 0 1 448.4 34.551 A 3.165 3.165 0 0 1 449.008 34.097 A 2.196 2.196 0 0 1 450.1 33.801 A 2.749 2.749 0 0 1 451.647 34.289 Q 452.032 34.545 452.396 34.936 A 5.492 5.492 0 0 1 452.5 35.051 Q 453.428 36.105 453.573 37.908 A 8.645 8.645 0 0 1 453.6 38.601 Q 453.6 39.001 453.55 39.501 Q 453.5 40.001 453.4 40.501 A 6.39 6.39 0 0 1 452.419 42.845 Q 451.873 43.67 451.05 44.451 Q 449.443 45.976 448.345 46.855 A 17.702 17.702 0 0 1 447.9 47.201 Q 448.9 47.301 450 47.351 Q 451.1 47.401 452.4 47.401 Q 457.1 47.401 461.7 46.801 A 6.806 6.806 0 0 1 461.788 47.082 Q 461.867 47.361 461.89 47.555 A 1.235 1.235 0 0 1 461.9 47.701 Q 461.9 48.974 461.181 50.918 A 19.73 19.73 0 0 1 461.15 51.001 Q 460.4 53.001 459.6 54.601 A 23.217 23.217 0 0 1 459.369 55.102 Q 459.024 55.829 458.405 57.054 A 220.39 220.39 0 0 1 458 57.851 Q 456.8 60.201 455.4 63.151 A 53.261 53.261 0 0 0 453.553 67.52 A 47.049 47.049 0 0 0 453.05 68.951 A 23.491 23.491 0 0 0 452.509 70.81 Q 452.285 71.728 452.184 72.536 A 10.187 10.187 0 0 0 452.1 73.801 A 4.956 4.956 0 0 0 452.183 74.75 Q 452.506 76.401 454.1 76.401 A 2.821 2.821 0 0 0 455.267 76.127 Q 456.137 75.732 457.095 74.77 A 11.8 11.8 0 0 0 457.4 74.451 A 25.837 25.837 0 0 0 459.132 72.351 Q 459.933 71.274 460.724 70.014 A 42.63 42.63 0 0 0 460.95 69.651 A 101.378 101.378 0 0 0 463.406 65.432 A 90.843 90.843 0 0 0 464.15 64.051 Q 465.6 61.301 466.4 59.701 Q 466.8 58.701 467.5 58.701 Q 467.875 58.701 467.898 59.315 A 2.227 2.227 0 0 1 467.9 59.401 A 1.59 1.59 0 0 1 467.877 59.653 Q 467.817 60.023 467.6 60.601 A 152.254 152.254 0 0 1 466.561 62.728 Q 465.844 64.17 465 65.801 Q 463.5 68.701 461.65 71.501 A 29.964 29.964 0 0 1 459.22 74.708 A 24.994 24.994 0 0 1 457.65 76.351 A 11.569 11.569 0 0 1 455.485 77.997 A 9.205 9.205 0 0 1 453 79.001 A 1.29 1.29 0 0 1 452.819 79.045 Q 452.515 79.098 451.954 79.101 A 12.398 12.398 0 0 1 451.9 79.101 A 5.087 5.087 0 0 1 449.763 78.61 Q 449.061 78.289 448.36 77.755 A 9.612 9.612 0 0 1 448.1 77.551 A 4.745 4.745 0 0 1 446.632 75.394 Q 446.348 74.59 446.251 73.595 A 11.246 11.246 0 0 1 446.2 72.501 A 13.649 13.649 0 0 1 446.431 70.08 Q 446.647 68.887 447.063 67.57 A 27.103 27.103 0 0 1 447.5 66.301 Q 448.7 62.901 450.75 59.701 A 72.997 72.997 0 0 0 451.919 57.818 Q 452.959 56.081 453.563 54.797 A 18.671 18.671 0 0 0 453.7 54.501 Q 454 53.701 454 53.101 Q 454 51.406 452.006 50.598 A 6.297 6.297 0 0 0 451.75 50.501 A 13.098 13.098 0 0 0 449.873 49.999 Q 448.904 49.81 447.768 49.708 A 30.147 30.147 0 0 0 445.9 49.601 Z M 505.5 49.601 L 504.3 52.901 Q 503.458 55.351 502.117 58.446 A 125.811 125.811 0 0 1 501.25 60.401 Q 499.3 64.701 496.95 68.701 A 38.496 38.496 0 0 1 495.016 71.687 Q 493.584 73.676 492.1 75.101 A 0.675 0.675 0 0 1 491.619 75.301 A 0.886 0.886 0 0 1 491.6 75.301 A 0.489 0.489 0 0 1 491.177 75.078 Q 491.119 74.995 491.077 74.88 A 1.291 1.291 0 0 1 491.05 74.801 Q 490.909 74.331 491.43 73.685 A 3.632 3.632 0 0 1 491.5 73.601 A 69.686 69.686 0 0 0 497.309 64.392 A 79.466 79.466 0 0 0 498.5 62.051 Q 501.6 55.701 503.75 49.101 Q 505.9 42.501 506.9 36.901 A 6.594 6.594 0 0 1 507.136 35.984 Q 507.293 35.525 507.509 35.167 A 2.863 2.863 0 0 1 508 34.551 A 3.165 3.165 0 0 1 508.608 34.097 A 2.196 2.196 0 0 1 509.7 33.801 A 2.749 2.749 0 0 1 511.247 34.289 Q 511.632 34.545 511.996 34.936 A 5.492 5.492 0 0 1 512.1 35.051 Q 513.028 36.105 513.173 37.908 A 8.645 8.645 0 0 1 513.2 38.601 Q 513.2 39.001 513.15 39.501 Q 513.1 40.001 513 40.501 A 6.39 6.39 0 0 1 512.019 42.845 Q 511.473 43.67 510.65 44.451 Q 509.043 45.976 507.945 46.855 A 17.702 17.702 0 0 1 507.5 47.201 Q 508.5 47.301 509.6 47.351 Q 510.7 47.401 512 47.401 Q 516.7 47.401 521.3 46.801 A 6.806 6.806 0 0 1 521.388 47.082 Q 521.467 47.361 521.49 47.555 A 1.235 1.235 0 0 1 521.5 47.701 Q 521.5 48.974 520.781 50.918 A 19.73 19.73 0 0 1 520.75 51.001 Q 520 53.001 519.2 54.601 A 23.217 23.217 0 0 1 518.969 55.102 Q 518.624 55.829 518.005 57.054 A 220.39 220.39 0 0 1 517.6 57.851 Q 516.4 60.201 515 63.151 A 53.261 53.261 0 0 0 513.153 67.52 A 47.049 47.049 0 0 0 512.65 68.951 A 23.491 23.491 0 0 0 512.109 70.81 Q 511.885 71.728 511.784 72.536 A 10.187 10.187 0 0 0 511.7 73.801 A 4.956 4.956 0 0 0 511.783 74.75 Q 512.106 76.401 513.7 76.401 A 2.821 2.821 0 0 0 514.867 76.127 Q 515.737 75.732 516.695 74.77 A 11.8 11.8 0 0 0 517 74.451 A 25.837 25.837 0 0 0 518.732 72.351 Q 519.533 71.274 520.324 70.014 A 42.63 42.63 0 0 0 520.55 69.651 A 101.378 101.378 0 0 0 523.006 65.432 A 90.843 90.843 0 0 0 523.75 64.051 Q 525.2 61.301 526 59.701 Q 526.4 58.701 527.1 58.701 Q 527.475 58.701 527.498 59.315 A 2.227 2.227 0 0 1 527.5 59.401 A 1.59 1.59 0 0 1 527.477 59.653 Q 527.417 60.023 527.2 60.601 A 152.254 152.254 0 0 1 526.161 62.728 Q 525.444 64.17 524.6 65.801 Q 523.1 68.701 521.25 71.501 A 29.964 29.964 0 0 1 518.82 74.708 A 24.994 24.994 0 0 1 517.25 76.351 A 11.569 11.569 0 0 1 515.085 77.997 A 9.205 9.205 0 0 1 512.6 79.001 A 1.29 1.29 0 0 1 512.419 79.045 Q 512.115 79.098 511.554 79.101 A 12.398 12.398 0 0 1 511.5 79.101 A 5.087 5.087 0 0 1 509.363 78.61 Q 508.661 78.289 507.96 77.755 A 9.612 9.612 0 0 1 507.7 77.551 A 4.745 4.745 0 0 1 506.232 75.394 Q 505.948 74.59 505.851 73.595 A 11.246 11.246 0 0 1 505.8 72.501 A 13.649 13.649 0 0 1 506.031 70.08 Q 506.247 68.887 506.663 67.57 A 27.103 27.103 0 0 1 507.1 66.301 Q 508.3 62.901 510.35 59.701 A 72.997 72.997 0 0 0 511.519 57.818 Q 512.559 56.081 513.163 54.797 A 18.671 18.671 0 0 0 513.3 54.501 Q 513.6 53.701 513.6 53.101 Q 513.6 51.406 511.606 50.598 A 6.297 6.297 0 0 0 511.35 50.501 A 13.098 13.098 0 0 0 509.473 49.999 Q 508.504 49.81 507.368 49.708 A 30.147 30.147 0 0 0 505.5 49.601 Z M 470.9 79.001 Q 467.1 79.001 465.3 76.451 A 9.683 9.683 0 0 1 463.694 72.505 A 13.157 13.157 0 0 1 463.5 70.201 A 21.582 21.582 0 0 1 464.28 64.568 A 28.253 28.253 0 0 1 465.6 60.801 Q 467.6 56.201 470.7 52.401 A 32.137 32.137 0 0 1 474.531 48.422 A 26.422 26.422 0 0 1 477.4 46.251 A 16.428 16.428 0 0 1 480.182 44.773 Q 482.328 43.901 484.4 43.901 A 9.118 9.118 0 0 1 486.58 44.145 A 5.757 5.757 0 0 1 490 46.401 A 9.277 9.277 0 0 1 491.525 49.927 A 13.252 13.252 0 0 1 491.8 52.701 A 21.943 21.943 0 0 1 490.807 59.12 A 27.277 27.277 0 0 1 489.7 62.101 Q 488.669 64.421 486.899 67.148 A 56.089 56.089 0 0 1 486.3 68.051 Q 484.1 71.301 481.3 74.001 A 5.262 5.262 0 0 0 482.898 75.78 A 6.142 6.142 0 0 0 483 75.851 Q 484.1 76.601 486 76.601 A 5.93 5.93 0 0 0 489.042 75.739 A 8.665 8.665 0 0 0 490.55 74.601 A 22.463 22.463 0 0 0 493.101 71.769 A 27.782 27.782 0 0 0 494.5 69.751 Q 496.3 66.901 497.7 64.001 Q 499.1 61.101 500 59.301 Q 500.259 58.783 500.816 58.712 A 1.458 1.458 0 0 1 501 58.701 A 0.717 0.717 0 0 1 501.277 58.752 Q 501.447 58.822 501.562 58.99 A 0.874 0.874 0 0 1 501.6 59.051 Q 501.8 59.401 501.5 60.101 Q 500.901 61.597 499.506 64.538 A 147.796 147.796 0 0 1 499.5 64.551 Q 498.1 67.501 496.1 70.651 A 24.275 24.275 0 0 1 492.991 74.611 A 21.362 21.362 0 0 1 491.5 76.001 Q 488.9 78.201 485.7 78.201 A 10.843 10.843 0 0 1 483.89 78.057 Q 482.8 77.873 481.9 77.451 A 9.315 9.315 0 0 1 480.455 76.617 A 7.144 7.144 0 0 1 479.3 75.601 A 21.932 21.932 0 0 1 476.938 77.179 A 17.652 17.652 0 0 1 475.1 78.101 A 11.033 11.033 0 0 1 472.213 78.913 A 9.877 9.877 0 0 1 470.9 79.001 Z M 370.5 32.301 Q 375.7 32.301 382.1 31.701 A 56.614 56.614 0 0 0 389.17 30.676 Q 392.852 29.889 395.975 28.619 A 34.108 34.108 0 0 0 396.5 28.401 A 30.714 30.714 0 0 0 400.994 26.057 Q 403.434 24.499 405.197 22.603 A 18.024 18.024 0 0 0 405.9 21.801 A 14.42 14.42 0 0 0 408.557 17.051 A 13.4 13.4 0 0 0 409.2 12.901 A 8.389 8.389 0 0 0 408.665 9.84 Q 407.877 7.811 405.927 6.451 A 9.65 9.65 0 0 0 405.55 6.201 Q 402.226 4.106 397.285 3.919 A 26.031 26.031 0 0 0 396.3 3.901 A 41.122 41.122 0 0 0 385.32 5.327 A 36.176 36.176 0 0 0 379.35 7.551 Q 371.7 11.201 365.35 17.101 Q 359 23.001 353.3 29.801 A 48.74 48.74 0 0 0 362.483 31.822 A 64.475 64.475 0 0 0 370.5 32.301 Z M 68.081 37.993 A 53.145 53.145 0 0 0 64.3 38.501 Q 68.7 29.801 73.75 21.901 Q 78.8 14.001 83.6 5.801 A 2441.596 2441.596 0 0 0 83.609 5.802 Q 85.906 6.202 88.75 6.701 A 76.93 76.93 0 0 1 90.507 7.029 Q 91.329 7.193 92.038 7.357 A 32.41 32.41 0 0 1 93.4 7.701 A 24.058 24.058 0 0 1 95.25 8.308 Q 102.5 11.031 102.5 17.101 Q 102.5 18.929 101.757 20.85 A 15.35 15.35 0 0 1 100.5 23.351 Q 98.5 26.601 94.95 29.501 A 32.792 32.792 0 0 1 92.629 31.23 A 37.537 37.537 0 0 1 86.8 34.451 Q 82.2 36.501 77 37.201 Q 73.8 37.601 70.5 37.801 A 63.288 63.288 0 0 0 68.081 37.993 Z M 472.4 76.801 A 6.605 6.605 0 0 0 474.828 76.308 Q 476.45 75.668 478.2 74.201 A 9.642 9.642 0 0 1 477.079 71.944 A 9.011 9.011 0 0 1 477 71.701 Q 476.603 70.412 476.6 69.319 A 6.055 6.055 0 0 1 476.6 69.301 A 6.383 6.383 0 0 1 476.786 67.726 A 5.025 5.025 0 0 1 477.45 66.201 A 2.776 2.776 0 0 1 479.458 64.946 A 4.317 4.317 0 0 1 480.1 64.901 Q 481.4 64.901 482.25 65.851 A 3.369 3.369 0 0 1 482.901 66.897 A 3.07 3.07 0 0 1 483.1 68.001 A 3.135 3.135 0 0 1 483.085 68.318 A 2.454 2.454 0 0 1 483.05 68.551 Q 483 68.801 482.9 69.101 A 29.927 29.927 0 0 0 484.7 66.346 A 39.581 39.581 0 0 0 486.1 63.701 A 51.043 51.043 0 0 0 487.769 59.705 Q 489.4 55.235 489.4 52.001 A 9.581 9.581 0 0 0 489.312 50.661 Q 489.21 49.936 488.987 49.345 A 4.314 4.314 0 0 0 488.5 48.401 A 2.928 2.928 0 0 0 486.366 47.136 A 4.424 4.424 0 0 0 485.8 47.101 A 5.761 5.761 0 0 0 483.896 47.445 Q 482.628 47.888 481.25 48.901 A 19.841 19.841 0 0 0 478.722 51.133 A 27.296 27.296 0 0 0 476.55 53.701 A 35.706 35.706 0 0 0 473.257 59.038 A 40.726 40.726 0 0 0 472.6 60.401 A 51.732 51.732 0 0 0 470.859 64.54 A 42.377 42.377 0 0 0 470.05 66.951 A 26.982 26.982 0 0 0 469.473 69.183 Q 469.243 70.279 469.155 71.248 A 12.728 12.728 0 0 0 469.1 72.401 A 8.145 8.145 0 0 0 469.195 73.681 Q 469.305 74.371 469.542 74.933 A 4.04 4.04 0 0 0 469.9 75.601 A 2.607 2.607 0 0 0 471.723 76.747 A 4.096 4.096 0 0 0 472.4 76.801 Z M 163.5 108.901 A 12.103 12.103 0 0 0 167.476 108.2 A 16.755 16.755 0 0 0 170.3 106.901 A 35.685 35.685 0 0 0 175.228 103.483 A 42.268 42.268 0 0 0 177.1 101.851 A 82.362 82.362 0 0 0 182.277 96.633 A 74.024 74.024 0 0 0 183.15 95.651 A 98.658 98.658 0 0 0 185.065 93.394 Q 185.985 92.273 186.745 91.267 A 47.112 47.112 0 0 0 187.6 90.101 A 12.462 12.462 0 0 0 187.989 89.52 Q 188.325 88.988 188.7 88.301 A 60.552 60.552 0 0 1 189.6 86.707 A 54.344 54.344 0 0 1 189.9 86.201 Q 185 87.501 179.15 89.051 Q 173.917 90.437 169.924 92.104 A 48.734 48.734 0 0 0 169 92.501 A 19.481 19.481 0 0 0 164.595 95.015 A 16.173 16.173 0 0 0 161.45 98.201 Q 159.757 100.478 159.107 102.452 A 7.502 7.502 0 0 0 158.7 104.801 Q 158.7 106.601 159.85 107.751 A 3.465 3.465 0 0 0 161.115 108.537 Q 161.665 108.741 162.35 108.831 A 8.89 8.89 0 0 0 163.5 108.901 Z M 147.3 76.001 A 3.351 3.351 0 0 0 148.294 75.834 Q 149.191 75.554 150.301 74.804 A 14.756 14.756 0 0 0 150.8 74.451 A 13.52 13.52 0 0 0 152.279 73.167 Q 153.002 72.449 153.757 71.533 A 34.333 34.333 0 0 0 155.3 69.501 A 122.269 122.269 0 0 0 157.513 66.22 Q 158.481 64.735 159.528 63.055 A 246.59 246.59 0 0 0 161.7 59.501 A 239.728 239.728 0 0 0 167.044 50.107 A 269.078 269.078 0 0 0 168.8 46.801 Q 167.5 45.601 165.8 45.601 Q 163.74 45.601 161.329 47.008 A 18.255 18.255 0 0 0 159.55 48.201 A 34.674 34.674 0 0 0 155.732 51.569 A 45.321 45.321 0 0 0 152.85 54.801 A 54.039 54.039 0 0 0 148.878 60.348 A 46.463 46.463 0 0 0 147.4 62.901 Q 146.117 65.296 145.456 67.325 A 17.869 17.869 0 0 0 145.25 68.001 Q 144.6 70.301 144.6 72.001 A 8.769 8.769 0 0 0 144.703 73.411 Q 145.11 75.897 147.129 75.997 A 3.475 3.475 0 0 0 147.3 76.001 Z M 281.6 43.501 A 12.799 12.799 0 0 0 282.637 43.462 Q 284.308 43.326 284.745 42.703 A 0.853 0.853 0 0 0 284.9 42.201 A 0.716 0.716 0 0 0 284.791 41.837 Q 284.644 41.586 284.296 41.322 A 4.094 4.094 0 0 0 284.05 41.151 Q 283.357 40.702 282.298 40.553 A 7.29 7.29 0 0 0 281.8 40.501 Q 281.2 40.401 279.8 40.401 L 276.85 40.401 L 274.3 40.401 A 8.084 8.084 0 0 0 279.18 43.276 A 12.344 12.344 0 0 0 281.6 43.501 Z" vector-effect="non-scaling-stroke"></path></g></svg>