<svg version="1.1" id="Layer_1" xmlns="http://www.w3.org/2000/svg" xmlns:xlink="http://www.w3.org/1999/xlink" x="0px" y="0px" style="enable-background:new 0 0 1366 768;" xml:space="preserve" viewBox="55.2 104.2 1250.6 531.5" height="70px"> <style type="text/css"> 	.st0{fill:#6A92D5;} 	.st1{fill:#153058;} </style> <g> 	<path class="st0" d="M122.3,457.2H72.2c-11.3,0-17-5.7-17-17v-12.4c0-11.3,5.7-17,17-17h154.2c11.3,0,17,5.7,17,17v12.4 		c0,11.3-5.7,17-17,17h-50.1v157.6c0,11.3-5.7,17-17,17h-20.1c-11.3,0-17-5.7-17-17V457.2z"></path> 	<path class="st0" d="M216.5,587c0-10.7,2.8-19.6,8.5-26.6c5.7-7,12.9-12.6,21.8-16.7c8.9-4.1,18.5-7,29.1-8.7 		c10.5-1.6,20.7-2.5,30.6-2.5h4.6v-2.8c0-6.6-2.3-11.2-6.8-13.8c-4.5-2.6-9.8-3.9-15.8-3.9c-5.2,0-10.2,0.7-15.1,2.2 		c-4.9,1.4-9.5,3.1-13.6,4.9c-10.5,4.5-18.1,2.1-22.9-7.4l-3.7-7.7c-2.3-4.7-2.9-9.1-1.9-13.1c1-4,3.9-7.3,8.7-9.7 		c6-2.9,13.5-5.7,22.6-8.3c9.1-2.7,19.4-4,30.9-4c22,0,39.4,5.7,52.1,17.2c12.7,11.4,19,27.4,19,47.8v81c0,11.3-5.7,17-17,17h-14.8 		c-11.3,0-17-5.8-17-17.3v-1.2v-2.2c0-0.4,0.1-0.7,0.3-0.9h-0.6c-3.1,4.7-6.9,9-11.4,12.7c-3.9,3.3-8.9,6.2-14.8,8.8 		c-6,2.6-12.9,3.9-20.7,3.9c-7.6,0-14.6-1.2-21-3.7c-6.4-2.5-11.9-5.9-16.4-10.2c-4.5-4.3-8.1-9.5-10.7-15.5 		C217.8,600.2,216.5,593.8,216.5,587z M269.3,582c0,3.7,1.3,6.9,3.9,9.6c2.6,2.7,6.3,4,11.3,4c3.9,0,7.5-0.9,10.8-2.6 		c3.3-1.7,6.2-4,8.7-6.6c2.5-2.7,4.4-5.7,5.7-9c1.3-3.3,2-6.6,2-9.9v-4.3h-4.9c-4.1,0-8.4,0.3-12.8,0.9c-4.4,0.6-8.5,1.6-12.1,3.1 		c-3.6,1.4-6.6,3.4-9,5.7C270.5,575.3,269.3,578.3,269.3,582z"></path> 	<path class="st0" d="M389.9,427.8c0-11.3,5.7-17,17-17h19.5c11.3,0,17,5.7,17,17v142.8c0,6,0.9,10,2.6,12.1 		c1.7,2.1,3.9,3.3,6.3,3.7c3.7,0.4,6.7,1.8,9,4c2.3,2.3,3.4,5.8,3.4,10.5V616c0,5.4-1.3,9.6-4,12.7c-2.7,3.1-7.1,4.6-13.3,4.6 		c-6.8,0-13.7-0.6-20.6-1.9c-6.9-1.2-13.1-4-18.5-8.2c-5.5-4.2-9.9-10.3-13.3-18.2c-3.4-7.9-5.1-18.6-5.1-32V427.8z"></path> 	<path class="st0" d="M482.6,427.8c0-11.3,5.7-17,17-17h19.5c11.3,0,17,5.7,17,17v97.4h15.1L576,484c4.3-7.6,11-11.4,20.1-11.4h20.4 		c7,0,11.5,2,13.6,5.9c2.1,3.9,1.2,8.8-2.5,14.5l-33.4,51.9v0.6l40.5,65.8c3.5,6,4.2,10.9,2.2,14.7c-2.1,3.8-6.6,5.7-13.6,5.7h-23.2 		c-8.9,0-15.6-4-20.1-12.1L552.8,570h-16.7v44.8c0,11.3-5.7,17-17,17h-19.5c-11.3,0-17-5.7-17-17V427.8z"></path> 	<path class="st0" d="M649.2,520.8c0-16.1,2.8-31,8.5-44.8c5.7-13.8,13.6-25.8,23.8-36c10.2-10.2,22.4-18.2,36.6-24.1 		c14.2-5.9,29.9-8.8,47-8.8c8.4,0,16.3,0.7,23.5,2c7.2,1.3,13.8,3,19.8,5.1c6,2.1,11.2,4.3,15.8,6.8c4.5,2.5,8.4,4.8,11.7,7.1 		c4.3,3.1,6.7,6.6,7.3,10.7c0.5,4-0.7,8.3-3.6,12.8l-7.7,12.7c-2.9,4.7-6.3,7.4-10.2,8c-3.9,0.6-8.2-0.5-13-3.4 		c-5.2-2.9-11.2-5.7-18.2-8.3c-7-2.7-14.6-4-22.9-4c-11.1,0-20.6,1.8-28.4,5.4c-7.8,3.6-14.3,8.3-19.3,14.2 		c-5.1,5.9-8.8,12.6-11.1,20.1c-2.4,7.5-3.6,15.3-3.6,23.3c0,8.2,1.2,16.3,3.7,24.3c2.5,7.9,6.3,15,11.4,21.3 		c5.1,6.3,11.6,11.3,19.5,15.1c7.8,3.8,17.1,5.7,27.8,5.7c9.3,0,17.8-1.7,25.5-5.1c7.7-3.4,14.3-7,19.6-10.7 		c9.7-6.8,17.6-5.8,23.8,3.1l8.7,12.1c2.9,4.3,4.2,8.6,3.9,12.7c-0.3,4.1-2.5,7.8-6.6,11.1c-3.5,2.7-7.7,5.6-12.7,8.7 		c-4.9,3.1-10.7,5.9-17.2,8.5c-6.5,2.6-13.7,4.7-21.6,6.5c-7.9,1.7-16.5,2.6-25.8,2.6c-17.7,0-33.7-2.9-48.1-8.7 		c-14.3-5.8-26.5-13.8-36.6-24.1c-10.1-10.3-17.8-22.4-23.2-36.3C651.9,552.5,649.2,537.3,649.2,520.8z"></path> 	<path class="st0" d="M863.8,587c0-10.7,2.8-19.6,8.5-26.6c5.7-7,12.9-12.6,21.8-16.7c8.9-4.1,18.5-7,29.1-8.7 		c10.5-1.6,20.7-2.5,30.6-2.5h4.6v-2.8c0-6.6-2.3-11.2-6.8-13.8c-4.5-2.6-9.8-3.9-15.8-3.9c-5.2,0-10.2,0.7-15.1,2.2 		c-4.9,1.4-9.5,3.1-13.6,4.9c-10.5,4.5-18.1,2.1-22.9-7.4l-3.7-7.7c-2.3-4.7-2.9-9.1-1.9-13.1c1-4,3.9-7.3,8.7-9.7 		c6-2.9,13.5-5.7,22.6-8.3c9.1-2.7,19.4-4,30.9-4c22,0,39.4,5.7,52.1,17.2c12.7,11.4,19,27.4,19,47.8v81c0,11.3-5.7,17-17,17H980 		c-11.3,0-17-5.8-17-17.3v-1.2v-2.2c0-0.4,0.1-0.7,0.3-0.9h-0.6c-3.1,4.7-6.9,9-11.4,12.7c-3.9,3.3-8.9,6.2-14.8,8.8 		c-6,2.6-12.9,3.9-20.7,3.9c-7.6,0-14.6-1.2-21-3.7c-6.4-2.5-11.9-5.9-16.4-10.2c-4.5-4.3-8.1-9.5-10.7-15.5 		C865.1,600.2,863.8,593.8,863.8,587z M916.7,582c0,3.7,1.3,6.9,3.9,9.6c2.6,2.7,6.3,4,11.3,4c3.9,0,7.5-0.9,10.8-2.6 		c3.3-1.7,6.2-4,8.7-6.6c2.5-2.7,4.4-5.7,5.7-9c1.3-3.3,2-6.6,2-9.9v-4.3h-4.9c-4.1,0-8.4,0.3-12.8,0.9c-4.4,0.6-8.5,1.6-12.1,3.1 		c-3.6,1.4-6.6,3.4-9,5.7C917.8,575.3,916.7,578.3,916.7,582z"></path> 	<path class="st0" d="M1037.8,489.6c0-11.3,5.7-17,17-17h17.3c11.3,0,17,5.7,17,17v9.9c0,1.4-0.1,2.7-0.2,3.7 		c-0.1,1-0.2,2.1-0.2,3.1c-0.2,1-0.3,2.1-0.3,3.1h0.6c1.2-4.1,3.2-8.4,5.9-13c2.7-4.5,5.9-8.7,9.6-12.4c3.7-3.7,7.9-6.8,12.5-9.3 		c4.6-2.5,9.4-3.7,14.4-3.7c5.4,0,9.1,1.4,11.3,4.3c2.2,2.9,3.2,7.1,3.2,12.7v17.3c0,11.3-5.7,17-17,17c-6.4,0-12,1.3-16.7,3.9 		c-4.7,2.6-8.7,6-11.7,10.4c-3.1,4.3-5.4,9.4-7,15.1c-1.5,5.8-2.3,11.9-2.3,18.2v44.8c0,11.3-5.7,17-17,17h-19.5 		c-11.3,0-17-5.7-17-17V489.6z"></path> 	<path class="st0" d="M1149.4,552.1c0-11.7,1.9-22.7,5.7-32.8c3.8-10.1,9.3-18.9,16.4-26.3c7.1-7.4,15.8-13.3,26.1-17.6 		c10.3-4.3,21.8-6.5,34.6-6.5c11.7,0,22.2,2,31.4,5.9c9.2,3.9,16.9,9.3,23.2,16.1c6.3,6.8,11,14.8,14.2,24.1 		c3.2,9.3,4.8,19.3,4.8,30c0,4.1-1.6,8.1-4.9,11.9c-3.3,3.8-7.6,5.7-13,5.7h-83.8c2.1,9.8,6.6,16.9,13.6,21.4 		c7,4.5,14.8,6.7,23.5,6.7c5.4,0,10.5-0.7,15.5-2.2c4.9-1.4,9.5-3.2,13.6-5.3c5.1-2.3,9.6-3,13.3-2.2c3.7,0.8,6.9,3.7,9.6,8.7 		l4.3,8.1c2.5,4.8,3.3,9.2,2.5,13.2c-0.8,4-3.6,7.4-8.3,10.1c-5.8,3.3-13.2,6.5-22.4,9.7c-9.2,3.1-19.9,4.7-32.3,4.7 		c-14.2,0-26.8-2.4-37.7-7.1c-10.9-4.7-20-11-27.4-18.7c-7.3-7.7-12.9-16.6-16.7-26.7C1151.3,572.9,1149.4,562.6,1149.4,552.1z 		 M1253,532c0-6.6-2-12.2-5.9-16.8c-3.9-4.6-9.3-7-16.1-7c-7.8,0-13.7,2.4-17.6,7.1c-3.9,4.7-6.6,10.3-8,16.7H1253z"></path> </g> <path class="st1" d="M941,305.1c12.6,0,22.9-10.2,22.9-22.9v-35.4l54.3,0l1.6,0c0.3,0,0.6,0,0.9,0c5.8,0,11.6,1.3,16.7,4.2 	c11.4,6.5,18,18,18,30.4c0,12.6-6.7,24.1-18.3,30.6c-5,2.8-10.6,4-16.3,4h-0.1h-20.1c-14.2,0-25.7,11.5-25.7,25.7l0,20.1 	c0,9.1-3.7,18.1-10.1,24.5c-6.5,6.5-15.2,10.2-24.5,10.2c-9.3,0-18-3.6-24.5-10.2c-6.5-6.5-10.1-15.2-10.1-24.5l-0.2-7.1l0-26.9 	c0-7-5.7-12.7-12.7-12.7h0c-7,0-12.7,5.7-12.7,12.7v27l0.2,6.7v0.2c0,11,2.8,21.9,8.7,31.3c11.5,18.3,30.6,28.7,51.3,28.8 	c16,0,31.1-6.2,42.5-17.6c11.2-11.2,17.6-26.6,17.6-42.5l0-20.1c0-0.2,0.2-0.3,0.3-0.3l20.1,0h0c11.1,0,22.2-2.9,31.5-8.9 	c18-11.4,28.2-30.1,28.4-50.5c0.2-15.3-5.6-30.3-16.1-41.5c-11.5-12.3-27.1-19.1-43.8-19.2l-56.9,0v-50l-0.2-6.7v-0.2 	c0-11-2.8-21.9-8.7-31.3c-11.5-18.3-30.6-28.7-51.3-28.8c-16,0-31.1,6.2-42.5,17.6c-11.2,11.2-17.6,26.6-17.6,42.5l0,20.1 	c0,0.2-0.2,0.4-0.4,0.4l-20.1,0h0c-11.1,0-22.2,2.9-31.6,8.9c-18,11.4-28.2,30.1-28.4,50.5c-0.2,15.3,5.6,30.3,16.1,41.5 	c11.5,12.3,27.1,19.1,43.8,19.1L941,305.1z M938.4,221.4l-35.7,0c-12.6,0-22.9,10.2-22.9,22.9v37.6c0,7,5.7,12.7,12.7,12.7v-1.9 	c7,0,12.7-3.8,12.7-10.8v-35.1h33.2v32.9h-13.5h-19.7h-25.4h-27.4h-26.9l-1.6,0c-0.3,0-0.6,0-0.9,0c-5.8,0-11.5-1.3-16.6-4.1 	c-11.5-6.5-18.1-18-18.1-30.5c0-12.6,6.7-24.3,18.5-30.7c4.9-2.7,10.5-3.9,16.1-3.9l0,0l20.1,0c14.2,0,25.7-11.5,25.7-25.7l0-20.1 	c0-9.1,3.7-18.1,10.1-24.5c6.5-6.5,15.2-10.2,24.5-10.2c9.3,0,18,3.6,24.5,10.2c6.5,6.5,10.1,15.2,10.1,24.5l0.2,7.1V221.4z"></path> </svg>